<svg width="500" height="500" viewBox="0 0 500 500" fill="none" xmlns="http://www.w3.org/2000/svg">
<path d="M410.245 258.961C320.618 207.427 175.303 207.427 85.6736 258.961C-3.95438 310.495 -3.95338 394.049 85.6746 445.582C175.305 497.115 320.619 497.115 410.246 445.582C499.871 394.049 499.871 310.495 410.245 258.961Z" fill="#F5F5F5"/>
<path d="M351.588 377.634C374.214 377.634 392.555 367.044 392.555 353.981C392.555 340.918 374.214 330.328 351.588 330.328C328.963 330.328 310.621 340.918 310.621 353.981C310.621 367.044 328.963 377.634 351.588 377.634Z" fill="#E0E0E0"/>
<path d="M302.713 395.383C286.349 393.88 272.426 394.915 261.371 397.207C259.903 386.772 251.343 376.547 235.692 368.569C201.149 350.961 145.143 350.961 110.599 368.569C76.0554 386.177 76.0554 414.725 110.599 432.333C145.142 449.941 201.148 449.941 235.692 432.333C239.582 430.35 243.03 428.227 246.045 425.998C257.11 428.498 269.398 429.841 280.547 429.523C280.933 429.658 281.331 429.79 281.741 429.921C291.588 433.066 302.036 434.665 310.813 434.665C318.434 434.665 324.796 433.458 328.408 431.011C328.81 430.739 329.168 430.458 329.485 430.174C334.206 430.317 339.336 430.511 344.737 429.424C352.566 427.847 356.413 424.399 356.194 420.303C355.638 409.951 325.594 397.488 302.713 395.383ZM280.973 426.205C274.259 423.738 270.677 420.369 271.077 416.831C271.605 412.167 278.489 407.972 286.749 407.28C287.891 407.184 289.054 407.139 290.222 407.139C296.589 407.139 303.117 408.494 307.268 410.487C305.359 410.535 303.524 410.821 301.851 411.396C299.379 412.245 298.238 414.225 298.871 416.564C299.349 418.324 300.838 420.258 303.185 422.104C297.404 424.654 289.583 425.937 280.973 426.205ZM307.856 413.74C309.033 413.74 310.247 413.843 311.468 414.035C311.504 414.127 311.535 414.218 311.56 414.31C312.047 416.053 310.214 418.228 306.477 420.415C303.903 418.694 302.366 416.969 302.024 415.709C301.918 415.316 301.797 414.871 302.911 414.489C304.414 413.972 306.094 413.74 307.856 413.74ZM289.981 428.813C296.067 428.031 301.511 426.62 305.82 424.478C305.992 424.393 306.164 424.307 306.332 424.22C310.634 426.714 316.575 428.809 323.685 429.719C316.473 432.294 303.143 431.923 289.981 428.813ZM328.086 426.852C320.414 426.414 314.154 424.498 309.686 422.263C313.247 419.866 315.001 417.366 314.922 414.796C318.597 415.833 322.098 417.541 324.62 419.481C327.263 421.511 328.709 423.664 328.588 425.385C328.55 425.904 328.384 426.391 328.086 426.852ZM344.091 426.22C339.65 427.114 335.47 426.931 331.605 426.945C331.748 426.465 331.82 426.015 331.848 425.614C332.051 422.737 330.191 419.639 326.612 416.888C323.218 414.28 318.391 412.094 313.467 411.083C309.082 405.616 295.695 403.254 286.476 404.022C276.554 404.854 268.538 410.202 267.829 416.462C267.561 418.824 268.184 422.676 273.521 426.194C265.517 425.939 257.168 424.928 249.374 423.344C257.517 416.31 261.592 408.39 261.598 400.47C272.384 398.189 286.122 397.139 302.412 398.639C326.356 400.84 352.545 413.341 352.927 420.478C353.042 422.608 349.828 425.066 344.091 426.22Z" fill="#E0E0E0"/>
<path d="M137.168 59.2188L125.711 65.8338C125.768 65.3218 125.807 64.8138 125.807 64.3168V60.9978C125.807 55.0908 121.66 52.6968 116.544 55.6498C114.472 56.8458 112.566 58.7408 111.023 60.9588C110.185 53.5318 104.358 50.7648 97.2804 54.8508C89.6274 59.2698 83.4234 70.0158 83.4234 78.8528V83.8188C83.4234 86.1078 83.8464 88.0358 84.5964 89.5718L75.0794 95.0658C72.2414 96.7038 69.9414 100.689 69.9414 103.965C69.9414 107.242 72.2414 108.57 75.0794 106.931L137.168 71.0838C140.006 69.4458 142.306 65.4608 142.306 62.1848C142.306 58.9088 140.006 57.5798 137.168 59.2188Z" fill="#EBEBEB"/>
<path d="M183.72 79.0013L176.415 83.2193C176.451 82.8933 176.476 82.5693 176.476 82.2523V80.1363C176.476 76.3703 173.832 74.8433 170.57 76.7263C169.249 77.4883 168.034 78.6973 167.05 80.1113C166.516 75.3753 162.8 73.6113 158.287 76.2173C153.407 79.0343 149.451 85.8863 149.451 91.5213V94.6873C149.451 96.1473 149.721 97.3763 150.199 98.3553L144.131 101.858C142.322 102.903 140.855 105.443 140.855 107.532C140.855 109.621 142.322 110.468 144.131 109.423L183.72 86.5673C185.529 85.5223 186.996 82.9823 186.996 80.8933C186.996 78.8033 185.529 77.9563 183.72 79.0013Z" fill="#EBEBEB"/>
<path d="M345.195 350.334C344.166 339.011 344.969 327.209 347.254 315.337C349.912 301.523 357.842 290.288 367.327 285.082C370.624 283.273 377.498 281.33 381.996 285.388C386.291 289.262 383.988 295.495 378.748 301.896C368.412 314.522 358.221 325.084 355.431 341.641L354.273 353.92L345.195 350.334Z" fill="#60A7F9"/>
<path opacity="0.2" d="M345.195 350.334C344.166 339.011 344.969 327.209 347.254 315.337C349.912 301.523 357.842 290.288 367.327 285.082C370.624 283.273 377.498 281.33 381.996 285.388C386.291 289.262 383.988 295.495 378.748 301.896C368.412 314.522 358.221 325.084 355.431 341.641L354.273 353.92L345.195 350.334Z" fill="black"/>
<path d="M348.386 348.78C348.101 348.78 347.871 348.55 347.871 348.265C347.871 332.269 351.261 318.414 358.235 305.91C362.842 297.648 368.477 291.65 375.463 287.574C375.706 287.428 376.023 287.513 376.167 287.759C376.311 288.004 376.227 288.32 375.982 288.463C369.16 292.444 363.648 298.315 359.134 306.411C352.248 318.758 348.901 332.449 348.901 348.265C348.901 348.55 348.671 348.78 348.386 348.78Z" fill="white"/>
<path d="M359.606 356.086C359.572 352.161 362.23 344.882 367.924 337.837C374.223 330.043 383.494 324.578 384.548 319.648C385.814 313.726 380.383 310.854 372.331 313.694C362.654 317.107 353.119 330.416 354.271 353.92L359.606 356.086Z" fill="#60A7F9"/>
<path d="M357.291 352.593C357.465 352.526 357.593 352.362 357.605 352.162C358.787 331.34 370.826 320.647 377.226 317.818C377.474 317.709 377.586 317.419 377.477 317.171C377.367 316.922 377.088 316.807 376.83 316.921C369.753 320.049 357.832 330.854 356.626 352.107C356.611 352.377 356.818 352.609 357.088 352.625C357.159 352.629 357.228 352.617 357.291 352.593Z" fill="white"/>
<path d="M309.711 429.757C300.934 429.757 290.486 428.158 280.639 425.012C280.229 424.881 279.831 424.749 279.445 424.614C262.997 425.083 244.064 421.944 230.25 416.798L231.391 413.736C242.763 417.972 258.14 420.83 272.42 421.285C267.083 417.767 266.459 413.916 266.728 411.554C267.437 405.293 275.453 399.946 285.375 399.114C294.594 398.346 307.981 400.708 312.366 406.175C317.29 407.186 322.117 409.372 325.511 411.98C329.09 414.73 330.95 417.829 330.747 420.706C330.719 421.107 330.648 421.557 330.504 422.037C334.369 422.023 338.548 422.206 342.99 421.312C348.727 420.158 351.941 417.7 351.827 415.57C351.445 408.433 325.255 395.933 301.312 393.731C269.409 390.793 247.266 397.623 238.001 404.363L236.079 401.72C245.803 394.646 268.806 387.462 301.612 390.475C324.493 392.58 354.537 405.042 355.092 415.395C355.311 419.491 351.464 422.939 343.635 424.516C338.234 425.602 333.104 425.408 328.383 425.266C328.066 425.55 327.708 425.831 327.306 426.103C323.694 428.551 317.332 429.757 309.711 429.757ZM288.879 423.904C302.041 427.014 315.371 427.385 322.583 424.811C315.473 423.901 309.532 421.806 305.23 419.312C305.062 419.398 304.891 419.484 304.718 419.57C300.409 421.711 294.965 423.122 288.879 423.904ZM308.584 417.354C313.052 419.59 319.313 421.505 326.984 421.943C327.283 421.482 327.449 420.995 327.486 420.476C327.607 418.754 326.161 416.602 323.518 414.572C320.995 412.632 317.495 410.925 313.82 409.887C313.899 412.458 312.145 414.957 308.584 417.354ZM289.12 402.23C287.952 402.23 286.789 402.276 285.647 402.372C277.387 403.064 270.503 407.259 269.975 411.923C269.575 415.461 273.157 418.83 279.871 421.297C288.481 421.029 296.301 419.747 302.082 417.196C299.736 415.35 298.246 413.416 297.768 411.656C297.135 409.317 298.277 407.337 300.748 406.488C302.421 405.913 304.256 405.627 306.165 405.579C302.015 403.586 295.487 402.23 289.12 402.23ZM306.755 408.831C304.993 408.831 303.313 409.063 301.812 409.579C300.698 409.961 300.818 410.407 300.925 410.799C301.267 412.059 302.804 413.785 305.378 415.505C309.115 413.317 310.948 411.143 310.461 409.4C310.436 409.308 310.405 409.217 310.368 409.125C309.146 408.935 307.932 408.831 306.755 408.831Z" fill="#455A64"/>
<path d="M319.121 425.729C321.256 426.267 324.127 426.693 325.895 426.927C326.402 426.67 326.875 426.397 327.306 426.105C327.708 425.833 328.066 425.552 328.383 425.268C328.383 425.268 325.181 425.111 322.584 424.812C321.553 425.18 320.384 425.481 319.121 425.729Z" fill="#37474F"/>
<path d="M302.817 420.431C303.471 420.157 304.11 419.872 304.72 419.569C304.892 419.484 305.064 419.398 305.232 419.311C305.232 419.311 303.923 418.651 302.085 417.195C301.31 417.537 300.493 417.852 299.648 418.149C300.688 419.181 301.855 419.924 302.817 420.431Z" fill="#37474F"/>
<path d="M310.46 409.4C310.616 409.959 310.531 410.563 310.223 411.198C311.563 411.371 312.677 411.72 313.443 412.02C313.706 411.314 313.842 410.603 313.82 409.886C313.82 409.886 312.187 409.309 310.367 409.125C310.403 409.217 310.434 409.308 310.46 409.4Z" fill="#37474F"/>
<path d="M268.457 421.094C269.958 422.553 271.913 423.783 273.452 424.629C275.476 424.673 277.479 424.672 279.445 424.616C279.445 424.616 274.827 422.853 272.42 421.287C271.108 421.245 269.784 421.176 268.457 421.094Z" fill="#37474F"/>
<path d="M236.078 401.72L238 404.363C241.658 401.702 247.33 399.03 254.81 396.948C255.19 395.722 255.468 394.527 255.645 393.375C246.865 395.636 240.247 398.687 236.078 401.72Z" fill="#37474F"/>
<path d="M241.252 416.807C237.747 415.893 234.424 414.865 231.391 413.736L230.25 416.798C232.709 417.714 235.335 418.563 238.075 419.343C239.171 418.546 240.231 417.699 241.252 416.807Z" fill="#37474F"/>
<path d="M177.957 278.369C177.936 278.369 177.914 278.369 177.894 278.368C165.468 277.895 153.711 268.67 142.34 259.748C132.617 252.119 123.434 244.914 115.583 244.914C114.681 244.914 113.949 244.182 113.949 243.28C113.949 242.378 114.681 241.646 115.583 241.646C124.562 241.646 134.178 249.191 144.358 257.177C155.318 265.777 166.652 274.67 178.017 275.103C178.919 275.137 179.623 275.897 179.589 276.798C179.555 277.678 178.83 278.369 177.957 278.369Z" fill="#455A64"/>
<path d="M97.268 350.052C88.429 346.768 80.869 334.683 84.157 321.215C88.116 304.999 105.928 293.507 115.704 284.095C133.865 266.61 144.981 252.629 139.191 227.465C134.122 205.433 113.73 198.109 101.613 198.563C86.592 199.126 77.135 205.393 77.964 210.257C78.333 212.421 82.421 213.385 85.653 214.567C95.668 218.23 98.767 220.475 101.967 224.783C106.841 231.344 107.657 239.907 106.61 240.503C105.556 241.103 104.173 236.165 97.523 233.323C90.873 230.481 87.621 232.528 87.681 234.008C87.744 235.561 93.863 236.893 95.715 245.692C97.256 253.012 96.892 262.445 85.882 277.511C79.104 286.786 63.688 304.161 67.052 326.327C70.416 348.492 87.247 356.598 94.202 356.989L97.268 350.052Z" fill="#60A7F9"/>
<path opacity="0.05" d="M97.268 350.052C88.429 346.768 80.869 334.683 84.157 321.215C88.116 304.999 105.928 293.507 115.704 284.095C133.865 266.61 144.981 252.629 139.191 227.465C134.122 205.433 113.73 198.109 101.613 198.563C86.592 199.126 77.135 205.393 77.964 210.257C78.333 212.421 82.421 213.385 85.653 214.567C95.668 218.23 98.767 220.475 101.967 224.783C106.841 231.344 107.657 239.907 106.61 240.503C105.556 241.103 104.173 236.165 97.523 233.323C90.873 230.481 87.621 232.528 87.681 234.008C87.744 235.561 93.863 236.893 95.715 245.692C97.256 253.012 96.892 262.445 85.882 277.511C79.104 286.786 63.688 304.161 67.052 326.327C70.416 348.492 87.247 356.598 94.202 356.989L97.268 350.052Z" fill="black"/>
<path opacity="0.15" d="M94.203 356.987L97.268 350.051C94.855 349.154 92.54 347.598 90.513 345.541C89.201 348.5 88.145 351.676 87.418 355.109C90.058 356.295 92.446 356.889 94.203 356.987Z" fill="black"/>
<path d="M122.949 224.398C124.3 223.513 123.82 221.445 123.147 219.977C121.346 216.053 119.148 212.859 116.045 209.83C118.274 210.2 120.378 211.002 122.538 211.667C125.623 212.616 127.609 213.983 128.068 212.836C128.263 212.35 128.173 211.072 127.953 210.226C127.405 208.114 126.894 207.338 126.164 206.767C118.224 200.607 108.56 198.303 101.613 198.563C86.5925 199.126 77.1355 205.393 77.9645 210.257C78.3335 212.421 82.4215 213.385 85.6535 214.567C95.6685 218.23 98.7675 220.475 101.967 224.783C102.007 224.837 105.587 226.575 107.215 227.613C107.938 228.074 108.801 228.569 109.613 228.631C110.009 228.661 110.393 228.588 110.742 228.358C111.86 227.622 111.624 225.938 111.208 224.666C110.393 222.178 109.387 219.752 108.202 217.417C112.07 218.303 115.701 220.199 118.639 222.866C119.861 223.976 121.568 225.303 122.949 224.398Z" fill="#455A64"/>
<path d="M171.668 344.22C172.935 361.603 178.631 372.418 190.493 382.462C202.355 392.506 219.184 398.505 226.628 401.739C234.073 404.973 239.613 408.94 244.992 404.38C250.371 399.82 249.907 389.95 259.462 382.114C269.017 374.278 272.36 372.083 272.604 366.394C272.926 358.879 265.701 359.072 263.485 360.2C263.485 360.2 261.62 356.999 256.291 358.182C251.807 359.177 249.682 362.962 249.682 362.962C249.682 362.962 246.356 362.762 242.845 366.037C239.734 368.939 233.69 376.735 233.69 376.735C233.69 376.735 240.146 366.58 237.33 355.749C234.778 345.935 228.5 343.246 228.5 343.246C228.5 343.246 231.201 341.871 238.422 343.161C238.422 343.161 235.365 334.784 222.241 331.533C209.117 328.282 200.347 337.713 200.347 337.713L171.668 344.22Z" fill="#60A7F9"/>
<path opacity="0.15" d="M252.039 360.291C250.456 361.597 249.684 362.961 249.684 362.961C251.638 362.906 255.871 363.169 257.337 368.268C257.337 368.268 259.002 362.523 252.039 360.291Z" fill="black"/>
<path opacity="0.15" d="M264.732 366.177C264.732 366.177 267.443 364.648 265.872 359.635C264.895 359.696 264.035 359.918 263.484 360.198C265.03 361.838 265.23 364.733 264.732 366.177Z" fill="black"/>
<path d="M256.258 375.868C249.791 377.454 244.377 381.697 241.379 388.835C238.381 395.974 239.446 400.74 242.337 401.472C245.225 402.203 246.64 401.792 249.172 397.944C251.272 393.149 253.251 387.205 259.461 382.112C261.299 380.605 262.902 379.31 264.302 378.155C264.032 376.089 261.255 374.643 256.258 375.868Z" fill="#F28F8F"/>
<path d="M254.736 369.069C252.786 368.276 250.735 372.907 252.992 373.787C254.867 374.517 257.348 370.131 254.736 369.069Z" fill="#FFA8A7"/>
<path d="M262.4 367.501C260.45 366.708 258.399 371.34 260.656 372.219C262.531 372.949 265.012 368.563 262.4 367.501Z" fill="#F28F8F"/>
<path d="M268.693 367.337C266.743 366.544 264.692 371.175 266.949 372.055C268.824 372.785 271.305 368.399 268.693 367.337Z" fill="#F28F8F"/>
<path d="M151.066 299.583C150.085 305.129 129.181 310.408 114.839 321.216C100.497 332.025 87.8348 346.768 90.0898 372.321C92.5628 400.343 117.794 410.65 131.073 410.649C144.352 410.649 189.743 407.132 212.972 374.08C236.201 341.027 204.932 297.506 151.066 299.583Z" fill="#60A7F9"/>
<path opacity="0.15" d="M118.387 364.313C118.387 364.313 125.619 351.564 145.47 355.08C165.322 358.595 163.542 389.347 163.542 389.347C163.542 389.347 163.763 406.54 151.065 404.742C138.369 402.945 118.387 364.313 118.387 364.313Z" fill="black"/>
<path opacity="0.15" d="M151.065 299.583C150.964 300.155 150.64 300.724 150.145 301.296C149.297 311.54 152.461 324.738 164.141 328.373C176.851 332.329 191.202 330.051 200.832 326.659C203.678 325.656 206.836 324.293 210.061 322.597C198.243 308.413 177.346 298.57 151.065 299.583Z" fill="black"/>
<path d="M159.079 372.194C158.965 372.194 158.849 372.182 158.733 372.158C114.768 362.708 98.5308 334.937 92.7658 319.223C85.2668 298.782 84.6158 276.391 91.1438 263.508C91.5528 262.703 92.5388 262.38 93.3398 262.789C94.1448 263.196 94.4678 264.181 94.0588 264.985C87.9138 277.11 88.6278 298.455 95.8338 318.097C101.368 333.178 116.987 359.842 159.419 368.961C160.301 369.151 160.863 370.02 160.674 370.903C160.51 371.67 159.832 372.194 159.079 372.194Z" fill="#455A64"/>
<path d="M256.528 361.249C261.594 390.549 242.527 418.309 213.939 423.252C185.352 428.195 158.07 408.45 153.003 379.15C148.738 354.485 162.098 333.939 183.485 325.107C187.504 323.447 191.807 322.201 196.33 321.419C198.644 321.019 200.945 320.753 203.221 320.617C229.074 319.072 251.871 334.321 256.528 361.249Z" fill="#455A64"/>
<mask id="mask0_277_3" style="mask-type:luminance" maskUnits="userSpaceOnUse" x="152" y="320" width="106" height="105">
<path d="M256.528 361.249C261.594 390.549 242.527 418.309 213.939 423.252C185.352 428.195 158.07 408.45 153.003 379.15C148.738 354.485 162.098 333.939 183.485 325.107C187.504 323.447 191.807 322.201 196.33 321.419C198.644 321.019 200.945 320.753 203.221 320.617C229.074 319.072 251.871 334.321 256.528 361.249Z" fill="white"/>
</mask>
<g mask="url(#mask0_277_3)">
<path opacity="0.15" d="M290.378 369.615C277.63 373.788 264.806 376.022 252.08 375.673C254.532 374.747 257.005 373.483 259.718 372.045C265.329 369.081 272.335 365.693 273.871 359.047C274.165 357.805 272.651 358.055 272.062 358.535C267.682 362.152 262.409 366.739 256.688 370.237C250.292 374.148 242.589 375.249 235.267 373.658C233.752 373.331 232.238 372.961 230.724 372.547C236.215 371.588 241.936 369.115 245.52 367.066C256.165 360.997 261.634 352.477 263.519 340.612C263.737 339.272 262.364 338.825 261.47 339.697C259.825 341.331 259.531 343.064 258.779 345.275C256.371 352.314 253.015 356.334 247.045 360.714C242.927 363.732 238.024 366.042 233.066 367.295C230.506 367.938 227.858 368.047 225.265 368.45C222.716 368.842 219.719 368.766 217.344 367.687C215.437 366.815 213.531 365.737 211.657 364.571C222.869 363.906 235.387 354.002 242.589 347.291C250.205 340.176 255.718 331.34 254.487 320.728C254.28 318.843 252.101 319.976 251.839 321.262C250.869 326.187 250.39 329.434 248.091 334.13C245.759 338.891 242.6 342.4 238.547 345.919C230.266 353.088 218.87 360.813 207.615 361.837C206.046 360.682 204.488 359.473 203.006 358.176C211.439 355.027 218.641 348.74 224.525 341.942C228.066 337.856 230.812 333.541 232.631 328.421C233.753 325.239 236.281 319.988 234.952 316.665C234.32 315.096 232.391 316.578 232.282 317.711C231.487 325.817 226.834 333.673 221.67 339.916C219.208 333.084 217.497 327.07 217.965 319.509C218.194 315.859 218.782 312.471 219.458 308.875C219.676 307.742 220.046 306.631 219.48 305.585C218.663 304.07 216.767 306.424 217.05 307.524C216.974 307.241 216.026 308.69 215.96 308.788C215.11 310.27 215.186 312.493 214.914 314.149C214.456 316.927 214.119 319.749 214.064 322.571C213.89 330.013 215.949 336.408 218.815 343.12C216.146 345.8 213.117 347.979 210.077 350.148C208.192 348.753 206.863 345.125 205.806 343.218C204.193 340.353 202.472 337.618 201.284 334.513C198.517 327.3 199.181 318.78 196.152 311.938C195.803 311.143 194.333 312.058 194.311 312.69C194.049 322.071 195.597 331.757 199.704 340.288C201.306 343.633 203.627 349.429 206.623 352.665C205.849 353.242 205.054 353.689 204.171 354.06C203.234 354.452 202.264 354.823 201.251 354.888C198.865 355.052 197.536 352.916 196.119 351.325C194.463 349.473 192.905 347.533 191.467 345.507C188.057 340.691 185.017 335.113 183.295 329.447C181.835 324.664 182.173 319.14 179.874 314.618C178.763 312.439 176.082 314.694 176.692 316.568C178.305 321.536 177.433 327.039 178.991 332.149C181.05 338.904 184.7 345.289 188.819 350.998C195.117 359.714 204.923 367.962 214.609 372.702C228.643 379.566 246.533 383.532 263.225 381.898C245.28 385.515 225.908 383.304 209.238 376.592C189.735 368.725 170.286 351.086 165.155 330.035C164.948 329.229 163.521 329.675 163.455 330.373C162.507 340.778 170.461 351.805 177.292 358.908C185.104 367.014 193.407 374.663 203.899 379.25C215.307 384.218 226.747 387.585 239.299 387.814C244.18 387.89 249.356 387.934 254.466 387.487C248.059 389.514 241.282 390.995 235.05 391.072C226.475 391.181 217.966 389.666 209.653 387.749C196.132 384.644 184.833 379.087 174.602 369.608C170.386 365.696 166.964 361.229 163.674 356.533C160.58 352.099 156.015 347.01 154.86 341.661C154.599 340.452 152.594 341.781 152.67 342.707C152.986 347.12 155.078 351.314 157.344 355.03C158.619 357.133 160.079 359.083 161.506 361.077C162.846 362.962 163.979 364.847 164.088 367.233C164.164 369.151 163.467 370.752 163.184 372.594C162.922 374.283 162.574 375.961 162.291 377.65C161.703 381.147 161.463 384.699 161.441 388.24C161.343 399.659 166.791 409.552 172.947 418.769C173.59 419.75 175.235 418.202 174.952 417.32C171.574 406.697 165.07 398.275 165.68 386.573C165.985 380.755 167.641 375.383 169.014 369.837C169.123 369.957 169.243 370.088 169.352 370.197C171.291 372.234 173.329 374.174 175.453 376.004C177.153 377.464 179.07 379.109 178.82 381.583C178.656 383.25 177.85 384.863 177.414 386.453C176.913 388.262 176.651 390.136 176.422 391.988C176.019 395.202 175.888 398.438 175.648 401.663C174.896 412.145 177.696 425.568 185.225 433.402C185.574 433.762 186.151 433.674 186.598 433.38C187.655 435.755 189.071 437.956 190.934 439.896C191.621 440.604 192.786 439.831 192.438 438.904C189.442 431.005 188.189 422.822 188.744 414.814C196.001 418.072 206.297 417.538 213.215 415.391C218.63 413.724 223.566 411.61 228.218 408.385C233.491 404.724 237.675 400.911 241.107 395.659C249.943 394.929 257.309 392.194 265.044 387.575C265.676 387.194 265.992 386.278 265.959 385.45C267.888 384.873 269.762 384.175 271.559 383.315C272.474 382.879 272.845 381.234 272.409 380.373C279.044 378.793 285.309 376.178 290.855 372.31C291.882 371.598 292.263 368.994 290.378 369.615ZM193.016 397.529C193.43 396.614 193.866 395.699 194.334 394.805C195.271 392.985 196.328 391.209 197.483 389.521C197.548 389.412 197.603 389.303 197.647 389.183C199.521 389.88 201.428 390.501 203.389 391.046C207.388 392.147 211.539 393.105 215.766 393.857C215.417 393.857 214.186 395.012 213.903 395.219C213.238 395.687 212.563 396.156 211.866 396.592C210.537 397.431 209.153 398.205 207.704 398.815C204.947 399.992 201.94 400.853 198.933 400.809C197.408 400.787 195.969 400.395 194.531 399.992C193.365 399.654 192.45 398.815 193.016 397.529ZM184.234 411.998C183.809 416.073 183.689 420.42 184.234 424.648C181.521 417.261 179.636 409.787 180.137 401.702C180.551 395.132 181.695 388.453 183.58 382.123C183.58 382.439 187.655 384.564 188.08 384.803C189.181 385.413 192.024 386.241 192.471 387.538C192.558 387.789 192.536 388.061 192.471 388.312C192.318 388.9 191.981 389.423 191.643 389.924C187.154 396.614 185.084 404.034 184.234 411.998ZM227.751 403.424C223.709 406.399 219.427 408.49 214.676 410.092C207.452 412.522 196.742 413.633 189.3 410.059C189.649 407.891 190.095 405.733 190.738 403.609C194.41 405.363 199.967 405.189 203.279 404.568C209.239 403.457 217.367 400.09 220.701 394.62C225.887 395.306 231.651 395.699 236.859 395.503C234.299 398.412 230.933 401.092 227.751 403.424Z" fill="black"/>
</g>
<g opacity="0.15">
<path d="M163.325 381.814C158.899 369.3 152.49 370.184 152.49 370.184C152.49 370.184 155.115 368.669 162.393 369.577C162.393 369.577 160.346 364.119 153.094 360.871C151.986 366.597 151.893 372.733 153.002 379.151C154.34 386.888 157.239 393.949 161.29 400.075C163.27 396.031 165.805 388.828 163.325 381.814Z" fill="black"/>
<path d="M178.736 416.72C180.161 413.612 182.139 410.391 185.453 407.368C194.582 399.04 197.805 396.672 197.749 390.978C197.675 383.456 190.47 384.029 188.317 385.273C188.317 385.273 186.286 382.175 181.027 383.636C176.602 384.866 174.679 388.758 174.679 388.758C174.679 388.758 171.11 388.392 167.396 392.372C165.669 394.223 163.183 397.754 161.449 400.315C165.967 407.07 171.898 412.669 178.736 416.72Z" fill="black"/>
</g>
<path d="M254.619 339.102C254.44 334.661 251.748 328.687 248.271 323.771C242.471 315.571 234.119 310.489 225.699 307.727L204.035 321.267C227.181 320.488 235.149 332.674 237.292 339.473C238.772 344.169 240.02 347.792 242.761 347.794C245.446 347.796 245.724 345.45 245.724 345.45C247.619 347.244 250.45 346.183 250.569 343.873C251.611 344.333 252.669 344.203 253.479 343.351C254.559 342.217 254.682 340.669 254.619 339.102Z" fill="#60A7F9"/>
<path opacity="0.15" d="M225.699 307.727L204.035 321.267C207.009 321.167 209.728 321.284 212.221 321.573C218.059 318.435 224.063 314.175 228.846 308.873C227.802 308.453 226.751 308.072 225.699 307.727Z" fill="black"/>
<path opacity="0.15" d="M253.479 343.352C253.494 343.336 253.505 343.318 253.52 343.301C252.607 343.611 251.775 343.234 251.303 342.098C250.569 340.332 250.344 339.501 249.945 339.102C249.945 339.102 250.788 341.855 250.569 343.873C251.611 344.334 252.669 344.204 253.479 343.352Z" fill="black"/>
<path opacity="0.15" d="M248.911 346.161C247.804 346.117 246.95 345.319 246.556 343.992C246.002 342.127 245.665 341.549 245.266 341.15C245.266 341.15 245.945 343.432 245.726 345.451C246.706 346.379 247.934 346.538 248.911 346.161Z" fill="black"/>
<path d="M90.0938 372.322C92.2738 389.614 98.5317 400.115 110.906 409.52C123.281 418.925 140.401 424.03 148.006 426.867C155.611 429.704 161.352 433.374 166.484 428.537C171.615 423.7 170.632 413.868 179.761 405.54C188.89 397.212 192.113 394.844 192.057 389.15C191.983 381.628 184.778 382.201 182.625 383.445C182.625 383.445 180.594 380.347 175.334 381.808C170.909 383.038 168.986 386.93 168.986 386.93C168.986 386.93 165.417 386.564 161.703 390.544C158.801 393.655 153.742 401.526 153.742 401.526C153.742 401.526 161.363 390.538 157.632 379.988C153.206 367.474 146.797 368.358 146.797 368.358C146.797 368.358 149.422 366.843 156.7 367.751C156.7 367.751 153.333 358.769 139.929 356.992C126.652 355.232 118.391 364.316 118.391 364.316L90.0938 372.322Z" fill="#60A7F9"/>
<path opacity="0.15" d="M171.199 384.139C169.687 385.526 168.988 386.93 168.988 386.93C171.855 386.88 175.337 387.131 177.114 392.3C177.114 392.3 179.357 386.469 171.199 384.139Z" fill="black"/>
<path opacity="0.15" d="M184.186 389.349C184.186 389.349 186.813 387.68 184.98 382.756C184.008 382.868 183.16 383.135 182.625 383.444C184.255 385 184.607 387.881 184.186 389.349Z" fill="black"/>
<path d="M176.233 399.473C169.858 401.397 164.675 405.919 162.057 413.206C159.439 420.492 160.753 425.196 163.679 425.775C166.601 426.353 167.992 425.869 170.319 421.892C172.164 416.993 173.827 410.953 179.76 405.54C181.516 403.938 183.049 402.56 184.386 401.334C184.008 399.284 181.159 397.986 176.233 399.473Z" fill="#F28F8F"/>
<path d="M173.864 393.26C171.875 392.571 170.07 397.304 172.371 398.063C174.282 398.693 176.528 394.183 173.864 393.26Z" fill="#F28F8F"/>
<path d="M181.926 390.793C179.937 390.104 178.132 394.837 180.433 395.596C182.344 396.227 184.59 391.716 181.926 390.793Z" fill="#F28F8F"/>
<path d="M188.2 390.297C186.211 389.608 184.405 394.341 186.706 395.1C188.616 395.731 190.864 391.22 188.2 390.297Z" fill="#F28F8F"/>
<path opacity="0.05" d="M160.649 428.536C148.781 425.98 150.368 419.593 145.066 415.759C139.764 411.926 127.919 413.388 108.948 397.872C89.9777 382.356 89.1027 348.674 101.221 333.994C93.5737 343.402 88.6117 355.526 90.0937 372.321C90.3427 375.137 90.8297 377.766 91.5037 380.232C94.4857 392.985 100.546 401.644 110.907 409.519C123.282 418.924 140.402 424.029 148.007 426.866C155.612 429.703 161.353 433.373 166.485 428.536C166.898 428.146 167.261 427.713 167.603 427.262C165.556 428.597 163.233 429.093 160.649 428.536Z" fill="black"/>
<path opacity="0.15" d="M205.402 345.407C199.206 336.903 194.343 332.925 186.828 328.719V323.854C185.694 324.243 184.576 324.658 183.483 325.109C172.759 329.538 164.055 336.911 158.578 346.273C181.433 344.545 191.724 356.207 194.277 362.922C196.067 367.629 197.557 371.255 200.357 371.095C203.099 370.938 203.244 368.526 203.244 368.526C205.286 370.246 208.114 368.994 208.098 366.628C209.19 367.035 210.262 366.84 211.039 365.922C212.073 364.7 212.107 363.111 211.949 361.515C211.502 356.988 209.029 350.385 205.402 345.407Z" fill="black"/>
<path d="M212.904 358.163C212.457 353.638 209.984 347.035 206.357 342.057C200.161 333.553 195.298 329.575 187.783 325.369V319.455C187.783 319.455 160.692 324.995 160.188 342.955C183.778 340.784 192.64 352.755 195.232 359.571C197.022 364.278 198.512 367.904 201.312 367.744C204.054 367.587 204.199 365.175 204.199 365.175C206.241 366.895 209.069 365.643 209.053 363.277C210.145 363.684 211.216 363.489 211.993 362.571C213.027 361.347 213.062 359.759 212.904 358.163Z" fill="#60A7F9"/>
<path opacity="0.15" d="M211.995 362.569C212.01 362.552 212.02 362.532 212.034 362.515C211.12 362.886 210.248 362.55 209.698 361.419C208.843 359.659 208.565 358.824 208.133 358.441C208.133 358.441 209.158 361.202 209.054 363.276C210.146 363.683 211.218 363.487 211.995 362.569Z" fill="black"/>
<path opacity="0.15" d="M207.493 365.71C206.36 365.731 205.44 364.966 204.959 363.635C204.283 361.763 203.904 361.193 203.473 360.809C203.473 360.809 204.302 363.099 204.198 365.174C205.254 366.064 206.518 366.153 207.493 365.71Z" fill="black"/>
<path opacity="0.15" d="M167.223 329.191C176.078 331.24 185.455 330.566 193.329 328.797C191.619 327.611 189.799 326.497 187.784 325.369V319.455C187.784 319.455 175.401 321.995 167.223 329.191Z" fill="black"/>
<path d="M193.625 260.228C196.355 251.583 208.293 240.673 218.348 243.839C224.015 245.623 221.741 266.511 221.741 266.511C221.741 266.511 203.354 267.916 193.625 260.228Z" fill="#60A7F9"/>
<path opacity="0.15" d="M193.625 260.228C196.355 251.583 208.293 240.673 218.348 243.839C224.015 245.623 221.741 266.511 221.741 266.511C221.741 266.511 203.354 267.916 193.625 260.228Z" fill="black"/>
<path d="M202.172 264.467C211.435 267.297 221.741 266.511 221.741 266.511C221.741 266.511 224.015 245.623 218.348 243.839C214.678 243.295 205.787 248.888 202.172 264.467Z" fill="#FFA8A7"/>
<path d="M214.06 256.782C213.199 254.456 214.861 251.465 214.861 251.465C211.471 251.465 207.049 254.946 206.648 260.559C206.648 260.559 213.55 268.879 220.634 264.471C220.977 263.06 221.515 261.986 222.115 261.157C222.175 259.715 222.209 258.095 222.181 256.432C218.512 255.611 214.06 256.782 214.06 256.782Z" fill="#F28F8F"/>
<path d="M170.17 268.472C162.639 263.426 146.502 262.361 140.626 271.114C137.315 276.047 152.166 290.96 152.166 290.96C152.166 290.96 167.373 280.553 170.17 268.472Z" fill="#60A7F9"/>
<path opacity="0.15" d="M170.17 268.472C162.639 263.426 146.502 262.361 140.626 271.114C137.315 276.047 152.166 290.96 152.166 290.96C152.166 290.96 167.373 280.553 170.17 268.472Z" fill="black"/>
<path d="M166.143 277.121C160.677 285.117 152.166 290.96 152.166 290.96C152.166 290.96 137.314 276.047 140.626 271.114C143.153 268.397 153.589 267.212 166.143 277.121Z" fill="#FFA8A7"/>
<path d="M148.523 274.617C148.523 274.617 151.689 275.915 152.47 278.269C152.47 278.269 147.875 280.306 145.605 283.469C146.457 284.565 147.322 285.611 148.134 286.556C149.317 286.752 150.698 287.266 152.168 288.401C160.453 287.418 160.17 277.183 160.17 277.183C157.209 272.988 151.17 272.5 148.523 274.617Z" fill="#F28F8F"/>
<path d="M201.887 322.071C192.257 325.463 177.906 327.741 165.196 323.785C150.049 319.07 149.217 298.267 152.895 288.69C156.573 279.114 164.151 269.346 181.477 263.243C198.803 257.14 210.83 260.001 219.698 265.158C228.566 270.315 240.957 287.047 232.109 300.214C224.684 311.262 211.516 318.678 201.887 322.071Z" fill="#60A7F9"/>
<path d="M201.809 319.896C221.007 313.133 220.006 301.867 215.153 297.377C210.3 292.887 202.265 291.878 193.08 295.114C183.894 298.35 178.266 304.172 177.298 310.712C176.33 317.252 182.611 326.658 201.809 319.896Z" fill="#F0F0F0"/>
<path d="M196.562 311.862C196.562 311.862 197.337 315.108 199.76 314.301C202.257 313.469 200.77 310.419 200.77 310.419L197.799 308.244L196.562 311.862Z" fill="#F28F8F"/>
<path d="M196.447 304.692L191.935 304.187C191.595 304.149 191.349 303.841 191.387 303.501C191.425 303.161 191.733 302.922 192.073 302.953L196.002 303.392L198.854 300.615C199.098 300.374 199.492 300.379 199.732 300.627C199.971 300.873 199.966 301.265 199.72 301.505L196.447 304.692Z" fill="#455A64"/>
<path d="M193.179 314.02C192.426 314.02 191.677 313.851 190.978 313.516C189.747 312.928 188.82 311.893 188.367 310.607C188.254 310.284 188.423 309.928 188.747 309.814C189.07 309.702 189.425 309.87 189.54 310.194C189.883 311.169 190.584 311.951 191.515 312.397C192.445 312.843 193.495 312.9 194.469 312.557C195.443 312.213 196.225 311.512 196.67 310.581C197.116 309.65 197.173 308.601 196.831 307.627L195.64 304.248C195.525 303.925 195.695 303.57 196.019 303.456C196.342 303.34 196.697 303.511 196.811 303.835L198.002 307.214C198.455 308.5 198.381 309.887 197.791 311.117C197.202 312.348 196.168 313.275 194.882 313.727C194.325 313.923 193.752 314.02 193.179 314.02Z" fill="#455A64"/>
<path d="M201.642 311.039C200.889 311.039 200.139 310.871 199.439 310.536C198.208 309.947 197.281 308.913 196.829 307.627L195.638 304.248C195.523 303.925 195.693 303.57 196.017 303.456C196.34 303.34 196.695 303.511 196.809 303.835L198 307.214C198.344 308.188 199.045 308.97 199.976 309.415C200.909 309.861 201.956 309.916 202.93 309.576C204.94 308.867 205.999 306.655 205.291 304.645C205.178 304.322 205.347 303.966 205.671 303.852C205.997 303.739 206.35 303.908 206.464 304.232C207.398 306.889 205.998 309.811 203.343 310.746C202.786 310.942 202.213 311.039 201.642 311.039Z" fill="#455A64"/>
<path d="M215.056 285.076C215.878 287.408 214.653 289.965 212.321 290.786C209.989 291.608 207.432 290.383 206.611 288.051C205.789 285.719 207.014 283.162 209.346 282.341C211.678 281.52 214.235 282.744 215.056 285.076Z" fill="#455A64"/>
<path d="M169.662 301.069C170.483 303.401 173.04 304.626 175.372 303.804C177.704 302.982 178.929 300.426 178.107 298.094C177.286 295.762 174.729 294.537 172.397 295.359C170.065 296.18 168.84 298.737 169.662 301.069Z" fill="#455A64"/>
<path d="M156.611 301.832C156.369 301.832 156.128 301.739 155.946 301.553C152.527 298.064 146.758 294.491 138.707 297.294C138.216 297.464 137.69 297.205 137.521 296.721C137.352 296.235 137.609 295.704 138.095 295.535C147.074 292.414 153.481 296.377 157.277 300.25C157.638 300.618 157.631 301.208 157.264 301.567C157.082 301.744 156.847 301.832 156.611 301.832Z" fill="#455A64"/>
<path d="M154.538 304.151C154.371 304.151 154.202 304.105 154.05 304.012C150.961 302.104 145.343 302.102 142.386 303.374C141.916 303.578 141.366 303.359 141.162 302.887C140.959 302.415 141.177 301.867 141.649 301.663C145.034 300.207 151.36 300.164 155.028 302.427C155.465 302.697 155.601 303.272 155.331 303.709C155.155 303.993 154.851 304.151 154.538 304.151Z" fill="#455A64"/>
<path d="M140.119 311.994C139.854 311.994 139.591 311.882 139.407 311.663C139.075 311.27 139.125 310.682 139.519 310.351C145.051 305.686 152.213 304.826 156.517 305.994C157.014 306.129 157.308 306.641 157.172 307.137C157.037 307.634 156.519 307.926 156.029 307.792C152.172 306.743 145.738 307.545 140.719 311.775C140.545 311.923 140.332 311.994 140.119 311.994Z" fill="#455A64"/>
<path d="M224.46 277.933C224.429 277.933 224.399 277.932 224.367 277.929C223.855 277.879 223.482 277.424 223.532 276.911C224.062 271.513 226.574 264.408 235.525 261.215C236.007 261.04 236.543 261.295 236.715 261.779C236.888 262.263 236.636 262.796 236.151 262.969C228.12 265.835 225.864 272.232 225.386 277.095C225.339 277.575 224.934 277.933 224.46 277.933Z" fill="#455A64"/>
<path d="M227.526 278.442C227.423 278.442 227.317 278.424 227.215 278.388C226.73 278.217 226.475 277.685 226.648 277.2C228.087 273.137 233.044 269.207 236.594 268.221C237.091 268.08 237.603 268.373 237.74 268.869C237.878 269.364 237.588 269.878 237.092 270.015C233.99 270.877 229.615 274.399 228.403 277.822C228.268 278.202 227.909 278.442 227.526 278.442Z" fill="#455A64"/>
<path d="M228.477 282.392C228.288 282.392 228.096 282.334 227.93 282.214C227.514 281.912 227.422 281.329 227.725 280.913C230.35 277.301 236.45 273.505 243.7 273.655C244.215 273.667 244.621 274.093 244.61 274.607C244.598 275.115 244.183 275.517 243.679 275.517C243.673 275.517 243.665 275.517 243.658 275.517C237.073 275.373 231.581 278.776 229.232 282.009C229.049 282.259 228.765 282.392 228.477 282.392Z" fill="#455A64"/>
<path d="M208.32 260.687C209.118 257.027 212.575 253.504 215.964 253.504C215.964 253.504 214.302 256.495 215.163 258.821C215.163 258.821 223.807 256.547 226.931 260.558C226.931 260.558 223.01 261.28 221.737 266.51C214.654 270.919 208.32 260.687 208.32 260.687Z" fill="#60A7F9"/>
<path d="M158.978 278.011C156.068 275.652 151.169 275.059 148.522 277.176C148.522 277.176 151.688 278.474 152.469 280.828C152.469 280.828 144.298 284.451 144.364 289.535C144.364 289.535 147.907 287.671 152.167 290.961C160.451 289.978 158.978 278.011 158.978 278.011Z" fill="#60A7F9"/>
<path d="M189.338 260.988C188.164 261.257 188.07 259.072 188.611 256.344C189.098 253.888 191.086 248.977 187.637 249.036C184.188 249.094 180.446 252.223 178.984 258.157C178.984 258.157 177.387 256.149 176.841 253.908C176.295 251.667 173.494 251.465 172.261 255.935C171.325 259.326 172.956 262.72 173.851 264.143C174.349 264.933 174.143 266.238 172.47 267.173C172.47 267.173 179.686 269.641 184.539 267.173C189.391 264.705 189.338 260.988 189.338 260.988Z" fill="#60A7F9"/>
<path d="M180.787 279.952C181.985 279.838 182.865 278.775 182.751 277.577C182.338 273.224 180.486 268.979 177.243 264.908C175.809 265.521 174.44 266.157 173.156 266.823C176.274 270.477 178.055 274.221 178.412 277.988C178.519 279.117 179.469 279.962 180.579 279.962C180.648 279.961 180.718 279.958 180.787 279.952Z" fill="#455A64"/>
<path d="M193.962 272.548C194.166 273.587 195.077 274.308 196.099 274.308C196.237 274.308 196.379 274.295 196.52 274.268C197.701 274.036 198.47 272.891 198.239 271.71C197.457 267.724 195.428 263.96 192.238 260.455C190.603 260.721 188.915 261.068 187.164 261.519C190.906 264.972 193.202 268.67 193.962 272.548Z" fill="#455A64"/>
<path d="M180.117 263.758C182.405 266.293 186.065 271.141 186.942 277.033C187.104 278.114 188.034 278.891 189.094 278.891C189.202 278.891 189.309 278.884 189.419 278.868C190.608 278.69 191.43 277.582 191.253 276.391C190.356 270.373 187.159 265.406 184.564 262.236C183.553 262.541 182.526 262.875 181.477 263.244C181.008 263.409 180.573 263.587 180.117 263.758Z" fill="#455A64"/>
<path d="M101.308 404.617C101.256 404.617 101.203 404.615 101.151 404.61C100.252 404.524 99.5934 403.726 99.6794 402.828C100.338 395.948 107.106 383.979 123.052 379.2C138.514 374.563 154.702 379.793 161.421 387.522C162.014 388.203 161.941 389.236 161.26 389.828C160.577 390.421 159.546 390.347 158.954 389.667C153.998 383.966 139.458 377.695 123.989 382.331C109.588 386.648 103.506 397.14 102.931 403.139C102.852 403.984 102.14 404.617 101.308 404.617Z" fill="#455A64"/>
<path d="M117.318 417.117C116.422 417.117 115.692 416.396 115.684 415.498C115.653 412.15 118.155 400.731 126.476 393.564C139.36 382.469 154.309 386.718 158.978 389.293C159.769 389.728 160.057 390.722 159.621 391.513C159.185 392.305 158.192 392.593 157.401 392.156C153.281 389.888 140.08 386.162 128.608 396.042C121.254 402.375 118.927 412.643 118.952 415.469C118.961 416.371 118.235 417.111 117.333 417.119C117.328 417.118 117.323 417.117 117.318 417.117Z" fill="#455A64"/>
<path d="M96.3755 251.94C91.5535 263.322 95.9665 287.511 105.879 302.423C116.58 318.517 138.275 338.787 162.621 347.788C163.467 348.102 163.9 349.041 163.587 349.888C163.342 350.548 162.718 350.955 162.054 350.955C161.866 350.955 161.674 350.923 161.487 350.854C136.452 341.597 114.152 320.768 103.158 304.231C92.0335 287.497 87.6985 260.593 94.2415 248.869C94.7935 247.88 95.3585 247.082 95.8675 246.455C96.2065 248.274 96.3925 250.101 96.3755 251.94Z" fill="#455A64"/>
<path d="M350.016 73.1687L360.031 67.3867L360.033 356.495L350.018 362.278L350.016 73.1687Z" fill="#37474F"/>
<path d="M334.993 353.604L350.016 362.278L350.014 73.1691L346.376 71.0681L345.157 83.6311L343.913 69.6461L334.992 64.4961L334.993 353.604Z" fill="#455A64"/>
<path opacity="0.1" d="M350.015 269.129V233.489C349.43 219.636 348.757 201.483 348.867 193.564L345.401 191.562C345.401 203.646 344.042 225.925 343.303 240.954C342.256 262.241 346.066 289.751 346.232 300.85C346.398 311.949 346.232 360.09 346.232 360.092L347.943 361.081C347.943 361.078 347.429 300.543 348.867 284.46C349.362 278.932 349.735 273.719 350.015 269.129ZM346.595 276.673C344.305 275.671 344.855 221.854 347.234 222.709C349.092 223.377 348.885 277.675 346.595 276.673Z" fill="black"/>
<path d="M346.377 71.0665L343.914 69.6445L345.158 83.6295L346.377 71.0665Z" fill="#263238"/>
<path opacity="0.05" d="M339.848 67.2972C339.639 82.7842 342.675 93.1622 342.62 114.682C342.62 114.682 342.28 99.4612 340.232 88.1782C337.949 75.5972 337.949 66.2012 337.949 66.2012L339.848 67.2972Z" fill="white"/>
<path opacity="0.05" d="M350.013 73.1683C350.013 78.2643 349.793 89.9013 349.156 97.0613C348.603 103.273 348.502 116.623 348.927 126.963C348.927 126.963 347.139 110.069 347.735 100.057C348.331 90.0453 348.326 72.1953 348.326 72.1953L350.013 73.1683Z" fill="white"/>
<path opacity="0.1" d="M334.992 121.95V140.49C336.579 130.723 339.073 120.406 339.51 116.023C340.166 109.448 339.073 97.3771 337.95 90.5601C336.827 83.7431 334.994 72.2411 335.285 64.6631L334.992 64.4941V82.9291C335.04 83.3261 335.086 83.7231 335.139 84.1141C336.377 93.2411 337.033 106.742 336.573 112.757C336.36 115.548 335.67 119.021 334.992 121.95Z" fill="black"/>
<path opacity="0.05" d="M340.872 254.033C340.57 260.826 343.479 286.185 344.04 294.179C345.134 309.787 344.643 359.174 344.643 359.174L342.619 358.005C342.619 358.005 342.86 302.169 342.619 295.68C342.285 286.692 339.967 261.871 340.872 254.033Z" fill="white"/>
<path opacity="0.1" d="M342.62 190.463C342.62 202.823 342.23 226.262 340.665 236.145C339.1 246.027 337.842 262.114 339.707 280.321C341.573 298.529 340.285 313.329 340.285 313.329C340.285 313.329 339.683 294.265 337.949 278.672C336.215 263.078 336.592 247.117 337.949 232.039C339.306 216.961 339.703 188.273 339.703 188.273L342.62 190.463Z" fill="black"/>
<path opacity="0.05" d="M337.368 187.43C337.368 187.43 337.143 207.054 336.785 213.577C336.428 220.1 335.487 232.826 335.487 232.826C335.487 232.826 335.174 211.925 335.487 205.217C335.8 198.509 335.348 185.902 335.348 185.902L337.368 187.43Z" fill="white"/>
<path opacity="0.05" d="M337.369 295.764C338.485 306.264 338.638 318.554 338.942 323.188C339.247 327.822 339.7 356.322 339.7 356.322L337.366 354.974C337.366 354.974 337.174 325.463 337.098 318.83C337 310.328 337.777 301.396 337.369 295.764Z" fill="white"/>
<path opacity="0.1" d="M342.571 71.7793C343.076 79.9293 344.981 87.8053 345.531 93.5213C346.081 99.2373 346.512 116.928 346.512 116.928L344.55 115.795C344.55 115.795 344.959 99.6243 343.977 91.7383C342.996 83.8523 342.337 76.9563 342.571 71.7793Z" fill="black"/>
<path d="M360.029 67.3869L345.007 58.7129L334.992 64.4959L350.014 73.1689L360.029 67.3869Z" fill="#263238"/>
<path opacity="0.15" d="M360.031 232.18L350.016 237.963L350.017 252.009L360.031 246.226V232.18Z" fill="black"/>
<path opacity="0.15" d="M350.016 237.961L334.992 229.287V243.333L350.017 252.007L350.016 237.961Z" fill="black"/>
<path d="M252.777 138.789L438.037 245.711L448.779 239.531L263.536 132.568L252.777 138.789Z" fill="#263238"/>
<path d="M244.062 131.53L430.488 239.122V196.042L413.99 186.517L412.188 199.08L411.107 184.853L244.062 88.4492L244.068 116.311L249.426 121.648L244.062 120.088V131.53Z" fill="#455A64"/>
<path opacity="0.05" d="M430.484 231.956C420.782 226.344 379.99 203.324 375.289 201.077C361.626 194.544 349.848 189.398 331.57 178.99C331.57 178.99 340.047 185.043 358.326 194.467C366.903 198.889 374.77 202.671 378.891 204.724C383.012 206.777 430.483 234.098 430.483 234.098V231.956H430.484Z" fill="white"/>
<path opacity="0.1" d="M244.101 97.6953C244.101 97.6953 250.987 101.676 260.008 106.894C274.263 115.14 283.837 121.076 290.027 126.756C296.217 132.436 308.198 139.634 313.584 142.557C313.584 142.557 307.262 140.264 295.415 132.926C283.568 125.589 281.41 121.771 264.582 112.037C247.753 102.302 244.098 100.19 244.098 100.19L244.101 97.6953Z" fill="black"/>
<path opacity="0.1" d="M430.487 226.843C420.294 220.947 386.233 201.314 380.836 198.192C375.44 195.071 362.728 192.62 355.758 188.588C355.758 188.588 360.929 192.351 368.013 195.078C375.098 197.804 423.853 225.318 430.487 229.155V226.843Z" fill="black"/>
<path opacity="0.05" d="M249.423 121.647C249.423 121.647 286.131 142.879 296.905 149.111C307.679 155.343 325.577 167.848 340.661 176.017C355.745 184.186 366.853 188.879 366.853 188.879C366.853 188.879 352.427 184.766 340.492 177.863C328.557 170.959 306.846 157.379 293.752 149.804C280.658 142.229 244.066 121.065 244.066 121.065L244.067 120.092L249.423 121.647Z" fill="white"/>
<path opacity="0.05" d="M430.486 211.432C420.478 205.643 387.365 186.554 379.444 181.972C371.523 177.39 359.472 168.943 346.041 161.173C332.61 153.404 321.588 148.616 313.148 145.31C304.708 142.004 295.41 136.738 295.41 136.738C295.41 136.738 304.269 142.951 317.577 148.998C330.885 155.045 346.828 163.384 360.981 173.439C375.134 183.494 430.487 214.258 430.487 214.258V211.432H430.486Z" fill="white"/>
<path opacity="0.05" d="M244.108 91.9004C244.108 91.9004 304.04 125.858 319.021 134.524C334.002 143.19 353.63 155.252 353.63 155.252C353.63 155.252 321.945 138.398 290.261 120.07C258.578 101.742 244.105 93.3734 244.105 93.3734L244.108 91.9004Z" fill="white"/>
<path opacity="0.1" d="M430.486 203.343C430.486 203.343 361.255 163.37 341.742 152.083C322.23 140.796 300.484 130.367 300.484 130.367C300.484 130.367 316.695 141.086 340.667 154.989C347.766 159.107 430.485 206.867 430.485 206.867V203.343" fill="black"/>
<path opacity="0.1" d="M244.062 124.758C244.062 124.758 286.704 149.422 297.708 155.787C308.712 162.153 337.235 179.535 344.04 183.85C344.04 183.85 315.948 169.09 278.592 147.481L244.059 127.507L244.062 124.758Z" fill="black"/>
<path opacity="0.1" d="M244.074 114.994C244.074 114.994 278.747 135.048 289.262 141.131C299.777 147.214 324.309 163.743 335.074 169.97C345.839 176.197 416.965 214.911 430.484 222.732V219.695C422.097 214.843 353.991 170.626 337.718 161.213C321.445 151.799 304.791 147.075 294.651 141.208C284.51 135.342 244.079 111.957 244.079 111.957L244.074 114.994ZM314.401 153.46C314.403 151.949 328.281 158.285 337.82 163.803C346.229 168.667 362.936 179.915 362.934 181.318C362.932 182.721 346.608 173.957 337.812 168.869C329.017 163.781 314.399 154.971 314.401 153.46Z" fill="black"/>
<path opacity="0.05" d="M244.109 103.414C250.683 107.21 271.153 118.786 276.848 123.163C282.542 127.54 288.449 134.582 299.454 140.936C299.454 140.936 288.098 136.196 281.57 130.005C275.042 123.815 244.055 106.482 244.055 106.482L244.109 103.414Z" fill="white"/>
<path opacity="0.2" d="M263.617 99.7383L411.243 186.659L412.238 190.693L413.754 188.151L428.623 197.436L430.486 239.122V196.042L413.988 186.516L412.547 185.656L411.106 184.853L263.617 99.7383Z" fill="white"/>
<path d="M441.23 232.911L430.488 239.122V196.042L441.23 189.709V232.911Z" fill="#37474F"/>
<path d="M413.987 186.518L412.186 199.081L411.105 184.854L412.546 185.657L413.987 186.518Z" fill="#263238"/>
<path d="M411.105 184.854L412.546 185.657L412.186 199.081L411.105 184.854Z" fill="#37474F"/>
<path d="M244.066 116.311L245.668 119.282L244.068 120.093L249.424 121.648L244.066 116.311Z" fill="#37474F"/>
<path d="M244.066 116.311L245.668 119.282L249.424 121.648L244.066 116.311Z" fill="#263238"/>
<path d="M435.042 232.844L430.485 232.995L422.152 229.459L430.485 237.504L435.042 232.844Z" fill="#263238"/>
<path d="M435.042 232.844L430.485 235.14L422.152 229.459L430.485 232.995L435.042 232.844Z" fill="#37474F"/>
<path d="M244.062 88.4496L430.488 196.043L441.23 189.71L254.92 82.1816L244.062 88.4496Z" fill="#263238"/>
<path d="M249.059 89.04L434.319 195.962V152.881L267.451 56.578L265.649 69.141L264.569 54.914L249.059 45.959V89.04Z" fill="#455A64"/>
<path opacity="0.05" d="M434.319 188.796C424.618 183.184 383.826 160.164 379.125 157.917C365.462 151.384 353.683 146.239 335.406 135.83C335.406 135.83 343.883 141.883 362.162 151.307C370.739 155.729 378.606 159.511 382.727 161.563C386.848 163.616 434.319 190.937 434.319 190.937V188.796Z" fill="white"/>
<path opacity="0.1" d="M249.097 55.2051C249.097 55.2051 254.819 58.5151 263.839 63.7331C278.094 71.9791 287.668 77.9151 293.858 83.5951C300.048 89.2751 312.03 96.4731 317.415 99.3961C317.415 99.3961 311.093 97.1031 299.247 89.7651C287.4 82.4271 285.242 78.6101 268.414 68.8761C251.585 59.1411 249.094 57.7001 249.094 57.7001L249.097 55.2051Z" fill="black"/>
<path opacity="0.1" d="M434.319 183.681C424.126 177.785 390.065 158.152 384.668 155.03C379.272 151.909 366.56 149.458 359.59 145.426C359.59 145.426 364.761 149.189 371.845 151.916C378.93 154.642 427.685 182.156 434.319 185.993V183.681Z" fill="black"/>
<path opacity="0.05" d="M249.066 76.0605C249.066 76.0605 289.964 99.7175 300.738 105.951C311.512 112.183 329.41 124.688 344.493 132.857C359.577 141.026 370.686 145.719 370.686 145.719C370.686 145.719 356.259 141.606 344.324 134.703C332.389 127.799 310.679 114.219 297.585 106.644C284.491 99.0685 249.062 78.5755 249.062 78.5755L249.066 76.0605Z" fill="white"/>
<path opacity="0.05" d="M434.318 168.269C424.31 162.48 391.197 143.391 383.276 138.809C375.355 134.227 363.304 125.779 349.873 118.01C336.442 110.241 325.419 105.453 316.98 102.147C308.54 98.8412 299.242 93.5742 299.242 93.5742C299.242 93.5742 308.101 99.7872 321.409 105.834C334.717 111.881 350.66 120.22 364.813 130.275C378.966 140.33 434.318 171.094 434.318 171.094V168.269Z" fill="white"/>
<path opacity="0.05" d="M249.107 49.4102C306.998 82.2012 306.74 82.0412 322.855 91.3632C337.836 100.029 357.465 112.091 357.465 112.091C357.465 112.091 325.78 95.2372 294.096 76.9092C262.413 58.5812 249.105 50.8832 249.105 50.8832L249.107 49.4102Z" fill="white"/>
<path opacity="0.1" d="M434.318 160.183C434.318 160.183 365.087 120.21 345.574 108.923C326.062 97.636 304.316 87.207 304.316 87.207C304.316 87.207 320.527 97.925 344.499 111.829C351.599 115.947 434.317 163.707 434.317 163.707V160.183" fill="black"/>
<path opacity="0.1" d="M249.059 82.2676C249.059 82.2676 290.536 106.261 301.54 112.626C312.544 118.992 341.067 136.374 347.872 140.689C347.872 140.689 319.78 125.929 282.424 104.32L249.055 85.0166L249.059 82.2676Z" fill="black"/>
<path opacity="0.1" d="M249.074 72.5038C249.074 72.5038 282.582 91.8868 293.097 97.9698C303.612 104.053 328.144 120.582 338.909 126.809C349.675 133.037 420.8 171.75 434.319 179.571V176.534C425.932 171.682 357.826 127.465 341.553 118.052C325.28 108.639 308.626 103.914 298.486 98.0468C288.345 92.1808 249.079 69.4668 249.079 69.4668L249.074 72.5038ZM318.237 110.299C318.239 108.789 332.117 115.124 341.656 120.642C350.065 125.506 366.772 136.754 366.77 138.157C366.768 139.56 350.444 130.796 341.648 125.708C332.853 120.62 318.235 111.81 318.237 110.299Z" fill="black"/>
<path opacity="0.05" d="M249.106 60.9238C255.68 64.7188 274.986 75.6248 280.68 80.0018C286.374 84.3788 292.281 91.4208 303.286 97.7748C303.286 97.7748 291.93 93.0348 285.402 86.8448C278.874 80.6548 249.051 63.9928 249.051 63.9928L249.106 60.9238Z" fill="white"/>
<path d="M267.452 56.5781L266.011 55.7481L264.57 54.9141L265.65 69.1411L267.452 56.5781Z" fill="#263238"/>
<path opacity="0.2" d="M267.449 56.5781L432.455 154.276L434.317 195.962V152.881L267.449 56.5781Z" fill="white"/>
<path d="M434.32 166.483L424.203 163.48L434.32 171.74V166.483Z" fill="#37474F"/>
<path d="M445.063 189.71L434.32 195.962V152.881L445.063 146.508V189.71Z" fill="#37474F"/>
<path d="M434.319 152.881L445.062 146.508L259.968 39.6836L249.059 45.9586L434.319 152.881Z" fill="#263238"/>
<path d="M434.32 166.484L437.188 167.502L434.32 171.741V166.484Z" fill="#37474F"/>
<path d="M437.188 167.501L434.32 169.158L424.203 163.48L434.32 171.74L437.188 167.501Z" fill="#263238"/>
<path d="M264.57 54.9141L266.011 55.7481L265.65 69.1411L264.57 54.9141Z" fill="#37474F"/>
<path d="M252.777 138.791L438.037 245.713V288.794L271.168 192.49L269.367 177.847L268.286 190.826L252.777 181.872V138.791Z" fill="#455A64"/>
<path opacity="0.05" d="M438.038 252.879C428.337 247.289 387.545 223.283 382.844 220.102C369.181 210.858 357.402 202.403 339.125 191.707C339.125 191.707 347.602 195.442 365.881 207.125C374.458 212.607 401.558 228.975 405.679 231.681C409.8 234.387 438.038 250.738 438.038 250.738V252.879Z" fill="white"/>
<path opacity="0.1" d="M252.816 172.672C252.816 172.672 258.537 175.969 267.557 181.167C281.812 189.381 291.387 194.5 297.577 195.968C303.767 197.436 315.749 204.072 321.134 207.368C321.134 207.368 314.812 202.361 302.966 196.019C291.119 189.677 288.961 191.002 272.133 181.305C255.304 171.608 252.812 170.172 252.812 170.172L252.816 172.672Z" fill="black"/>
<path opacity="0.1" d="M438.038 257.991C427.845 252.117 413.016 243.562 407.62 240.452C402.224 237.342 370.28 214.05 363.309 210.033C363.309 210.033 368.48 212.24 375.564 217.695C382.649 223.149 431.404 251.857 438.038 255.679V257.991Z" fill="black"/>
<path opacity="0.05" d="M252.785 151.782C252.785 151.782 293.682 175.349 304.456 181.557C315.23 187.765 333.128 195.927 348.212 205.176C363.296 214.425 374.404 222.558 374.404 222.558C374.404 222.558 359.978 210.013 348.043 203.136C336.108 196.259 314.397 184.769 301.303 177.224C288.209 169.679 252.781 149.264 252.781 149.264L252.785 151.782Z" fill="white"/>
<path opacity="0.05" d="M438.037 273.403C428.029 267.636 414.148 259.632 406.227 255.067C398.306 250.503 367.023 233.97 353.592 226.23C340.161 218.491 329.138 210.551 320.699 204.111C312.259 197.671 302.961 192.201 302.961 192.201C302.961 192.201 311.82 196.217 325.128 205.537C338.436 214.857 354.379 224.928 368.532 231.215C382.685 237.502 438.037 270.577 438.037 270.577V273.403Z" fill="white"/>
<path opacity="0.05" d="M252.827 178.476C252.827 178.476 311.595 213.048 326.575 221.68C341.556 230.312 361.184 240.916 361.184 240.916C361.184 240.916 329.499 221.183 297.815 202.926C266.132 184.669 252.824 177 252.824 177L252.827 178.476Z" fill="white"/>
<path opacity="0.1" d="M438.037 281.491C438.037 281.491 368.806 241.6 349.293 230.356C329.781 219.112 308.035 204.432 308.035 204.432C308.035 204.432 324.246 212.432 348.218 226.209C355.318 230.289 438.036 277.967 438.036 277.967L438.037 281.491Z" fill="black"/>
<path opacity="0.1" d="M252.777 145.564C252.777 145.564 294.254 169.465 305.258 175.806C316.262 182.147 344.785 197.699 351.59 201.242C351.59 201.242 323.498 183.564 286.142 162.038L252.773 142.809L252.777 145.564Z" fill="black"/>
<path opacity="0.1" d="M252.798 158.385C252.798 158.385 292.064 181.012 302.205 186.855C312.346 192.699 328.999 207.203 345.272 216.58C361.545 225.957 429.651 260.305 438.038 265.138V262.101C424.519 254.311 353.394 210.973 342.628 204.77C331.863 198.567 307.331 186.769 296.816 180.71C286.301 174.651 252.793 155.342 252.793 155.342L252.798 158.385ZM345.368 209.034C354.164 214.102 370.488 224.188 370.489 225.593C370.491 226.998 353.783 218.954 345.375 214.109C335.836 208.612 321.959 198.924 321.956 197.411C321.954 195.896 336.572 203.965 345.368 209.034Z" fill="black"/>
<path opacity="0.05" d="M252.825 166.959C259.399 170.755 278.705 182.141 284.399 184.339C290.093 186.537 296 186.315 307.005 192.669C307.005 192.669 295.649 184.296 289.121 182.949C282.593 181.601 252.77 163.826 252.77 163.826L252.825 166.959Z" fill="white"/>
<path d="M271.171 192.491L269.231 188.032L268.289 190.827L269.37 177.848L271.171 192.491Z" fill="#263238"/>
<path opacity="0.2" d="M271.168 149.41L436.174 247.108L438.037 288.794V245.713L271.168 149.41Z" fill="white"/>
<path d="M438.039 275.191L427.922 266.512L438.039 269.935V275.191Z" fill="#37474F"/>
<path d="M448.781 239.533L438.039 245.713V288.794L448.781 282.599V239.533Z" fill="#37474F"/>
<path d="M438.039 275.19L445.914 267.371L438.039 269.934V275.19Z" fill="#37474F"/>
<path d="M445.914 267.372L438.039 272.517L427.922 266.512L438.039 269.935L445.914 267.372Z" fill="#263238"/>
<path d="M268.289 190.827L269.231 188.032L269.37 177.848L268.289 190.827Z" fill="#37474F"/>
<path d="M340.002 118.802C342.885 120.467 345.364 122.55 347.441 125.05C349.516 127.55 351.236 130.289 352.599 133.265C353.964 136.243 354.983 139.39 355.656 142.708C356.328 146.026 356.723 149.316 356.838 152.578C356.914 155.168 356.954 157.852 356.954 160.633C356.954 163.416 356.914 165.996 356.838 168.379C356.722 171.508 356.328 174.343 355.656 176.883C354.983 179.424 353.965 181.397 352.599 182.798C351.235 184.201 349.516 184.954 347.441 185.056C345.364 185.158 342.885 184.379 340.002 182.715C337.12 181.051 334.64 178.967 332.565 176.468C330.49 173.969 328.769 171.23 327.404 168.252C326.04 165.275 325.021 162.127 324.348 158.809C323.675 155.491 323.281 152.201 323.167 148.94C323.089 146.468 323.051 143.844 323.051 141.062C323.051 138.281 323.088 135.64 323.167 133.139C323.281 130.009 323.675 127.174 324.348 124.634C325.021 122.093 326.039 120.122 327.404 118.719C328.769 117.318 330.489 116.565 332.565 116.462C334.64 116.358 337.12 117.138 340.002 118.802ZM346.172 161.777C346.325 156.836 346.325 151.864 346.172 146.864C346.094 145.341 345.95 143.895 345.739 142.53C345.527 141.166 345.191 139.894 344.731 138.709C344.269 137.526 343.654 136.444 342.885 135.468C342.116 134.492 341.155 133.671 340.002 133.005C338.849 132.339 337.888 132.05 337.12 132.139C336.351 132.227 335.731 132.412 335.27 133.063C334.809 133.714 334.439 134.736 334.208 135.845C333.977 136.955 333.871 138.283 333.834 139.74C333.641 144.541 333.641 149.512 333.834 154.653C333.871 156.154 333.996 157.587 334.208 158.952C334.419 160.316 334.764 161.597 335.246 162.791C335.726 163.986 336.351 165.071 337.12 166.047C337.888 167.023 338.849 167.846 340.002 168.51C341.155 169.177 342.116 169.465 342.885 169.377C343.653 169.288 344.278 168.924 344.758 168.284C345.238 167.644 345.585 166.764 345.797 165.643C346.008 164.523 346.133 163.234 346.172 161.777Z" fill="#263238"/>
<path d="M352.603 182.792C351.235 184.197 349.521 184.949 347.438 185.06C345.367 185.159 342.889 184.382 340.005 182.718C337.12 181.054 334.643 178.97 332.571 176.468C331.585 175.285 330.697 174.052 329.871 172.77L333.397 170.736C334.112 171.796 334.876 172.819 335.69 173.806C337.761 176.308 340.239 178.392 343.123 180.056C346.008 181.72 348.486 182.497 350.569 182.398C351.555 182.349 352.623 182.136 353.449 181.79C353.204 182.131 352.919 182.465 352.603 182.792Z" fill="#37474F"/>
<path d="M346.822 134L343.297 136.071C343.161 135.874 343.038 135.664 342.89 135.467C342.113 134.493 341.152 133.667 340.005 133.001C338.846 132.335 337.885 132.052 337.12 132.138C336.355 132.224 335.739 132.409 335.271 133.063C334.975 133.495 334.95 133.531 335.271 133.063C335.468 132.792 335.678 132.582 335.912 132.41C336.257 132.151 338.76 130.142 338.969 129.981C339.327 129.697 339.758 129.525 340.239 129.476C341.016 129.39 341.977 129.673 343.123 130.339C344.282 131.005 345.243 131.831 346.008 132.804C346.305 133.187 346.588 133.581 346.822 134Z" fill="#37474F"/>
<path d="M355.654 142.521C354.981 139.203 353.963 136.056 352.597 133.078C351.233 130.102 349.514 127.363 347.439 124.863C345.362 122.363 342.883 120.28 340 118.615C337.118 116.951 334.638 116.171 332.563 116.275C331.576 116.324 330.675 116.531 329.848 116.874C328.825 118.194 328.023 119.878 327.469 121.971C326.796 124.511 326.402 127.346 326.288 130.476C326.21 132.977 326.172 135.618 326.172 138.399C326.172 141.181 326.209 143.805 326.288 146.277C326.402 149.538 326.796 152.828 327.469 156.146C328.142 159.464 329.16 162.612 330.525 165.589C331.89 168.567 333.61 171.306 335.686 173.805C337.761 176.304 340.241 178.388 343.123 180.052C346.006 181.717 348.485 182.496 350.562 182.393C351.548 182.344 352.621 182.134 353.446 181.791C354.426 180.545 355.164 178.727 355.719 176.634C356.391 174.094 356.721 171.321 356.836 168.192C356.912 165.81 356.952 163.23 356.952 160.446C356.952 157.665 356.912 154.98 356.836 152.391C356.72 149.129 356.325 145.839 355.654 142.521ZM349.292 159.114C349.253 160.571 349.128 161.86 348.918 162.981C348.706 164.102 348.359 164.982 347.879 165.622C347.681 165.886 347.458 166.103 347.212 166.273C347.16 166.309 344.33 168.586 344.078 168.757C343.728 168.995 343.33 169.14 342.883 169.192C342.114 169.28 341.153 168.992 340 168.325C338.847 167.66 337.886 166.838 337.118 165.862C336.349 164.886 335.724 163.801 335.244 162.606C334.762 161.412 334.417 160.131 334.206 158.767C333.994 157.402 333.869 155.969 333.832 154.468C333.639 149.326 333.639 144.355 333.832 139.554C333.869 138.097 334.004 136.813 334.235 135.703C334.466 134.594 334.812 133.714 335.273 133.063C335.461 132.798 335.673 132.58 335.912 132.408C336.26 132.157 338.756 130.146 338.967 129.983C339.33 129.702 339.755 129.533 340.242 129.477C341.01 129.388 341.971 129.677 343.124 130.343C344.277 131.009 345.238 131.83 346.007 132.806C346.775 133.782 347.39 134.863 347.852 136.047C348.312 137.232 348.648 138.504 348.86 139.868C349.072 141.233 349.215 142.679 349.293 144.202C349.445 149.201 349.445 154.173 349.292 159.114Z" fill="#60A7F9"/>
<path d="M302.698 160.289C302.274 160.045 301.91 159.598 301.602 158.947C301.293 158.296 301.141 157.646 301.141 156.994V147.939L282.98 137.453C282.555 137.209 282.19 136.762 281.884 136.111C281.575 135.46 281.422 134.81 281.422 134.158V124.747C281.422 123.21 281.672 122.082 282.172 121.364L299.411 97.8511C299.757 97.3991 300.073 97.1541 300.362 97.1131C300.651 97.0721 301.043 97.1961 301.544 97.4851L310.249 102.511C310.673 102.755 311.036 103.202 311.346 103.853C311.653 104.504 311.806 105.156 311.806 105.806V139.893L316.765 142.756C317.189 143 317.554 143.448 317.861 144.098C318.169 144.75 318.323 145.401 318.323 146.052V155.462C318.323 156.113 318.169 156.586 317.861 156.881C317.554 157.178 317.189 157.203 316.765 156.959L311.806 154.096V163.149C311.806 163.801 311.653 164.275 311.346 164.57C311.037 164.867 310.673 164.893 310.249 164.648L302.698 160.289ZM301.429 133.903V117.569L293.012 129.043L301.429 133.903Z" fill="#263238"/>
<path d="M317.86 156.882C318.168 156.587 318.322 156.114 318.322 155.463V153.393L314.928 151.434L311.805 154.098L316.764 156.961C317.189 157.204 317.554 157.18 317.86 156.882Z" fill="#37474F"/>
<path d="M311.807 161.083V163.154C311.807 163.807 311.647 164.276 311.339 164.572C311.031 164.868 310.673 164.893 310.242 164.646L302.698 160.294C302.279 160.047 301.909 159.604 301.601 158.95C301.576 158.888 301.564 158.839 301.539 158.79L304.658 156.127C304.67 156.176 304.695 156.238 304.72 156.287C305.028 156.928 305.398 157.384 305.817 157.631L311.807 161.083Z" fill="#37474F"/>
<path d="M304.263 145.278L301.144 147.941L282.973 137.45C282.554 137.203 282.184 136.76 281.888 136.106C281.839 136.007 281.814 135.921 281.777 135.822L285.007 133.443C285.315 134.096 285.673 134.54 286.104 134.787L304.263 145.278Z" fill="#37474F"/>
<path d="M316.764 142.57L311.805 139.707V105.62C311.805 104.97 311.652 104.319 311.345 103.667C311.036 103.016 310.672 102.569 310.248 102.325L301.543 97.2994C301.387 97.2094 301.261 97.1654 301.126 97.1074L285.293 118.702C284.793 119.42 284.543 120.548 284.543 122.085V131.496C284.543 132.147 284.696 132.797 285.005 133.449C285.311 134.1 285.676 134.547 286.101 134.791L304.262 145.277V154.332C304.262 154.983 304.414 155.633 304.723 156.285C305.03 156.936 305.395 157.383 305.819 157.627L311.805 161.083V154.099L314.928 151.436L318.322 153.395V145.868C318.322 145.217 318.168 144.567 317.86 143.914C317.553 143.263 317.188 142.815 316.764 142.57ZM304.551 131.239L301.428 133.715L293.011 128.855L301.428 117.381L304.551 114.905V131.239Z" fill="#60A7F9"/>
<path d="M382.897 206.592C382.473 206.348 382.108 205.901 381.801 205.25C381.492 204.599 381.34 203.949 381.34 203.297V194.242L363.178 183.756C362.753 183.512 362.388 183.065 362.083 182.414C361.774 181.763 361.621 181.113 361.621 180.461V171.05C361.621 169.513 361.871 168.385 362.371 167.667L379.61 144.154C379.956 143.703 380.272 143.457 380.561 143.416C380.85 143.375 381.242 143.499 381.743 143.788L390.448 148.814C390.872 149.058 391.235 149.505 391.545 150.156C391.852 150.807 392.005 151.459 392.005 152.109V186.196L396.964 189.059C397.388 189.303 397.752 189.751 398.06 190.401C398.368 191.053 398.522 191.704 398.522 192.355V201.764C398.522 202.415 398.368 202.888 398.06 203.183C397.753 203.48 397.388 203.504 396.964 203.261L392.005 200.398V209.451C392.005 210.103 391.852 210.577 391.545 210.872C391.236 211.169 390.872 211.195 390.448 210.95L382.897 206.592ZM381.628 180.206V163.872L373.21 175.346L381.628 180.206Z" fill="#263238"/>
<path d="M398.059 203.184C398.367 202.889 398.521 202.416 398.521 201.765V199.695L395.127 197.736L392.004 200.4L396.963 203.263C397.387 203.506 397.751 203.482 398.059 203.184Z" fill="#37474F"/>
<path d="M392.006 207.386V209.457C392.006 210.11 391.846 210.579 391.538 210.875C391.23 211.171 390.872 211.196 390.441 210.949L382.897 206.597C382.478 206.35 382.108 205.907 381.8 205.253C381.775 205.191 381.763 205.142 381.738 205.093L384.857 202.43C384.869 202.479 384.894 202.541 384.919 202.59C385.227 203.231 385.597 203.687 386.016 203.934L392.006 207.386Z" fill="#37474F"/>
<path d="M384.463 191.581L381.344 194.244L363.173 183.753C362.754 183.506 362.384 183.063 362.088 182.409C362.039 182.31 362.014 182.224 361.977 182.125L365.207 179.746C365.515 180.399 365.873 180.843 366.304 181.09L384.463 191.581Z" fill="#37474F"/>
<path d="M396.963 188.873L392.004 186.01V151.923C392.004 151.273 391.851 150.622 391.544 149.97C391.235 149.319 390.871 148.872 390.447 148.628L381.742 143.602C381.586 143.512 381.46 143.467 381.325 143.41L365.492 165.005C364.992 165.722 364.742 166.851 364.742 168.388V177.799C364.742 178.45 364.895 179.1 365.204 179.752C365.51 180.403 365.875 180.85 366.299 181.094L384.461 191.58V200.635C384.461 201.286 384.613 201.936 384.922 202.588C385.229 203.239 385.594 203.686 386.018 203.93L392.004 207.386V200.402L395.127 197.738L398.521 199.697V192.17C398.521 191.519 398.367 190.869 398.059 190.216C397.751 189.565 397.387 189.118 396.963 188.873ZM384.75 177.543L381.627 180.019L373.209 175.159L381.627 163.685L384.75 161.209V177.543Z" fill="#60A7F9"/>
<path d="M286.883 177.889C286.964 177.936 287.033 178.023 287.094 178.147C287.153 178.273 287.183 178.399 287.183 178.524V180.335C287.183 180.46 287.153 180.552 287.094 180.607C287.034 180.665 286.964 180.67 286.883 180.623L281.623 177.587C281.542 177.54 281.472 177.455 281.413 177.328C281.353 177.204 281.324 177.079 281.324 176.954V165.919C281.324 165.794 281.353 165.702 281.413 165.645C281.472 165.59 281.542 165.584 281.623 165.631L286.795 168.616C286.876 168.663 286.945 168.749 287.004 168.874C287.063 168.999 287.093 169.124 287.093 169.25V171.061C287.093 171.186 287.063 171.278 287.004 171.334C286.945 171.391 286.875 171.397 286.795 171.35L283.376 169.377V171.221L286.549 173.052C286.631 173.1 286.701 173.186 286.761 173.312C286.82 173.437 286.849 173.561 286.849 173.686V175.498C286.849 175.623 286.82 175.713 286.761 175.771C286.701 175.828 286.631 175.832 286.549 175.787L283.376 173.955V175.868L286.883 177.889Z" fill="#FAFAFA"/>
<path d="M292.352 174.898C292.434 174.945 292.504 175.032 292.564 175.157C292.622 175.282 292.652 175.407 292.652 175.533V177.258C292.652 177.383 292.622 177.475 292.564 177.531C292.504 177.588 292.434 177.592 292.352 177.545L291.343 176.962C290.662 176.57 290.322 176.897 290.322 177.944V182.145C290.322 182.27 290.293 182.362 290.233 182.418C290.174 182.475 290.104 182.481 290.022 182.434L288.624 181.627C288.542 181.579 288.472 181.493 288.413 181.367C288.354 181.243 288.324 181.118 288.324 180.993V173.033C288.324 172.908 288.354 172.816 288.413 172.76C288.472 172.703 288.542 172.697 288.624 172.746L289.911 173.489C289.992 173.536 290.063 173.623 290.122 173.747C290.181 173.872 290.211 173.999 290.211 174.124V174.516C290.381 174.363 290.587 174.278 290.826 174.256C291.067 174.236 291.353 174.321 291.686 174.514L292.352 174.898Z" fill="#FAFAFA"/>
<path d="M297.446 177.839C297.528 177.885 297.598 177.971 297.658 178.097C297.717 178.222 297.746 178.347 297.746 178.473V180.198C297.746 180.323 297.717 180.415 297.658 180.473C297.598 180.528 297.528 180.534 297.446 180.486L296.437 179.903C295.756 179.51 295.416 179.838 295.416 180.885V185.088C295.416 185.213 295.387 185.305 295.327 185.36C295.268 185.418 295.198 185.423 295.116 185.376L293.718 184.569C293.636 184.522 293.566 184.435 293.507 184.31C293.448 184.185 293.418 184.06 293.418 183.934V175.974C293.418 175.849 293.448 175.757 293.507 175.701C293.566 175.644 293.636 175.64 293.718 175.687L295.005 176.43C295.086 176.477 295.157 176.564 295.216 176.688C295.275 176.814 295.305 176.94 295.305 177.065V177.458C295.475 177.305 295.681 177.22 295.92 177.198C296.161 177.178 296.447 177.264 296.781 177.456L297.446 177.839Z" fill="#FAFAFA"/>
<path d="M304.246 185.557C304.253 185.733 304.258 185.954 304.258 186.222C304.258 186.49 304.253 186.706 304.246 186.872C304.232 187.41 304.15 187.876 304.002 188.268C303.854 188.662 303.652 188.963 303.392 189.172C303.134 189.381 302.821 189.483 302.455 189.475C302.089 189.47 301.68 189.335 301.228 189.075C300.777 188.815 300.368 188.477 300.002 188.059C299.636 187.642 299.323 187.181 299.064 186.672C298.805 186.164 298.602 185.629 298.454 185.065C298.306 184.501 298.224 183.942 298.21 183.387C298.203 183.211 298.199 182.991 298.199 182.724C298.199 182.457 298.203 182.239 298.21 182.073C298.217 181.53 298.296 181.063 298.444 180.67C298.592 180.275 298.798 179.977 299.06 179.77C299.322 179.563 299.637 179.459 300.003 179.459C300.369 179.46 300.777 179.591 301.229 179.852C301.68 180.112 302.09 180.454 302.456 180.875C302.822 181.296 303.136 181.763 303.399 182.274C303.661 182.784 303.865 183.32 304.009 183.882C304.153 184.444 304.232 185.002 304.246 185.557ZM300.208 184.456C300.231 184.902 300.332 185.299 300.514 185.649C300.695 185.998 300.934 186.258 301.229 186.429C301.525 186.6 301.764 186.614 301.945 186.475C302.126 186.334 302.228 186.055 302.25 185.634C302.266 185.473 302.273 185.284 302.273 185.067C302.273 184.85 302.266 184.653 302.25 184.473C302.228 184.028 302.126 183.63 301.945 183.28C301.763 182.931 301.525 182.671 301.229 182.5C300.934 182.329 300.694 182.315 300.514 182.454C300.332 182.595 300.231 182.874 300.208 183.293C300.193 183.457 300.186 183.646 300.186 183.862C300.186 184.078 300.193 184.275 300.208 184.456Z" fill="#FAFAFA"/>
<path d="M309.318 184.693C309.4 184.74 309.47 184.827 309.529 184.951C309.588 185.077 309.618 185.203 309.618 185.328V187.053C309.618 187.178 309.588 187.268 309.529 187.326C309.47 187.383 309.4 187.387 309.318 187.34L308.309 186.757C307.628 186.365 307.287 186.691 307.287 187.738V191.941C307.287 192.066 307.258 192.158 307.199 192.214C307.139 192.271 307.069 192.277 306.988 192.23L305.589 191.422C305.508 191.375 305.437 191.288 305.378 191.163C305.319 191.039 305.289 190.913 305.289 190.787V182.827C305.289 182.702 305.319 182.612 305.378 182.554C305.437 182.497 305.508 182.493 305.589 182.54L306.876 183.283C306.958 183.331 307.028 183.417 307.088 183.541C307.147 183.667 307.177 183.793 307.177 183.918V184.311C307.346 184.159 307.551 184.073 307.792 184.052C308.032 184.032 308.318 184.117 308.652 184.31L309.318 184.693Z" fill="#FAFAFA"/>
<path d="M309.762 191.337C309.776 191.186 309.823 191.062 309.902 190.964C309.979 190.868 310.092 190.861 310.239 190.947L311.604 191.734C311.671 191.773 311.728 191.842 311.776 191.944C311.824 192.047 311.848 192.149 311.848 192.251C311.848 192.297 311.844 192.334 311.837 192.365L310.971 195.264C310.941 195.36 310.892 195.452 310.822 195.536C310.751 195.62 310.642 195.62 310.495 195.535L309.662 195.055C309.596 195.016 309.538 194.947 309.491 194.846C309.442 194.742 309.418 194.641 309.418 194.539V194.505L309.762 191.337Z" fill="#FAFAFA"/>
<path d="M318.758 199.197C318.544 199.073 318.356 198.931 318.192 198.767C318.03 198.606 317.889 198.438 317.771 198.267C317.653 198.097 317.553 197.929 317.472 197.761C317.39 197.594 317.323 197.446 317.271 197.313V200.951C317.271 201.076 317.242 201.168 317.183 201.223C317.123 201.281 317.053 201.286 316.972 201.239L315.573 200.432C315.492 200.385 315.421 200.298 315.362 200.173C315.303 200.048 315.273 199.923 315.273 199.797V188.591C315.273 188.466 315.303 188.374 315.362 188.318C315.421 188.261 315.492 188.257 315.573 188.304L316.915 189.079C316.997 189.125 317.067 189.211 317.127 189.337C317.186 189.462 317.215 189.587 317.215 189.713V190.105C317.282 190.03 317.353 189.952 317.432 189.872C317.51 189.791 317.605 189.736 317.72 189.706C317.836 189.675 317.976 189.677 318.143 189.711C318.309 189.744 318.515 189.831 318.758 189.972C319.091 190.163 319.406 190.422 319.702 190.746C319.998 191.071 320.257 191.46 320.479 191.911C320.701 192.365 320.88 192.875 321.017 193.445C321.154 194.013 321.229 194.637 321.245 195.318C321.252 195.493 321.256 195.726 321.256 196.016C321.256 196.306 321.252 196.535 321.245 196.701C321.229 197.364 321.155 197.901 321.017 198.313C320.88 198.724 320.7 199.027 320.479 199.223C320.258 199.419 319.999 199.512 319.702 199.5C319.405 199.491 319.091 199.389 318.758 199.197ZM319.257 195.351C319.28 195.045 319.28 194.727 319.257 194.395C319.235 193.984 319.15 193.587 319.002 193.206C318.854 192.824 318.606 192.533 318.259 192.332C318.095 192.238 317.956 192.197 317.838 192.208C317.719 192.221 317.621 192.269 317.543 192.355C317.466 192.442 317.405 192.551 317.36 192.686C317.316 192.818 317.287 192.967 317.271 193.129C317.256 193.291 317.249 193.486 317.249 193.714C317.249 193.942 317.256 194.146 317.271 194.324C317.287 194.503 317.315 194.686 317.36 194.872C317.405 195.057 317.466 195.237 317.543 195.412C317.621 195.589 317.719 195.75 317.838 195.897C317.956 196.046 318.096 196.167 318.259 196.261C318.606 196.462 318.854 196.457 319.002 196.247C319.15 196.036 319.236 195.737 319.257 195.351Z" fill="#FAFAFA"/>
<path d="M321.93 198.328C321.93 197.577 322.117 197.064 322.491 196.79C322.864 196.517 323.472 196.51 324.316 196.768L325.614 197.176C325.614 196.903 325.565 196.65 325.47 196.417C325.374 196.186 325.208 196.001 324.97 195.863C324.8 195.765 324.668 195.727 324.576 195.749C324.483 195.768 324.415 195.795 324.37 195.826C324.304 195.879 324.241 195.899 324.181 195.889C324.123 195.877 324.052 195.848 323.972 195.8L322.562 194.987C322.489 194.944 322.427 194.875 322.379 194.779C322.331 194.683 322.31 194.58 322.318 194.471C322.334 194.217 322.407 193.986 322.54 193.779C322.675 193.571 322.858 193.415 323.09 193.311C323.322 193.205 323.6 193.167 323.922 193.193C324.243 193.22 324.594 193.342 324.971 193.559C325.422 193.82 325.815 194.132 326.147 194.496C326.479 194.858 326.755 195.253 326.973 195.682C327.192 196.108 327.352 196.56 327.457 197.035C327.559 197.512 327.611 198 327.611 198.501V203.676C327.611 203.801 327.582 203.893 327.523 203.948C327.464 204.006 327.393 204.011 327.312 203.964L325.913 203.157C325.831 203.11 325.761 203.023 325.702 202.898C325.643 202.773 325.614 202.648 325.614 202.522V202.044C325.436 202.282 325.216 202.426 324.954 202.474C324.69 202.522 324.345 202.421 323.916 202.174C323.597 201.99 323.314 201.759 323.066 201.479C322.819 201.198 322.612 200.891 322.445 200.556C322.279 200.221 322.151 199.863 322.062 199.481C321.975 199.101 321.93 198.716 321.93 198.328ZM324.46 200.182C324.622 200.276 324.774 200.32 324.915 200.317C325.056 200.312 325.177 200.266 325.281 200.177C325.385 200.089 325.466 199.963 325.525 199.797C325.584 199.633 325.614 199.437 325.614 199.208L324.593 198.858C324.393 198.8 324.232 198.805 324.11 198.87C323.988 198.937 323.927 199.077 323.927 199.294C323.927 199.511 323.973 199.688 324.066 199.827C324.158 199.965 324.29 200.083 324.46 200.182Z" fill="#FAFAFA"/>
<path d="M331.583 207.625C331.865 207.789 332.111 207.831 332.326 207.756C332.542 207.68 332.649 207.444 332.649 207.045V205.851C332.582 205.938 332.511 206.018 332.432 206.093C332.354 206.166 332.257 206.219 332.143 206.25C332.029 206.281 331.889 206.28 331.722 206.246C331.556 206.212 331.35 206.126 331.107 205.985C330.774 205.792 330.459 205.534 330.163 205.211C329.867 204.886 329.609 204.501 329.386 204.053C329.164 203.606 328.985 203.104 328.848 202.546C328.711 201.989 328.635 201.382 328.62 200.724C328.613 200.548 328.609 200.345 328.609 200.111C328.609 199.877 328.613 199.676 328.62 199.51C328.634 198.869 328.71 198.347 328.848 197.943C328.985 197.537 329.165 197.244 329.386 197.057C329.609 196.873 329.866 196.786 330.163 196.796C330.459 196.808 330.773 196.91 331.107 197.103C331.35 197.244 331.562 197.399 331.739 197.57C331.916 197.741 332.068 197.914 332.194 198.089C332.319 198.265 332.423 198.435 332.505 198.602C332.586 198.768 332.653 198.917 332.704 199.05V198.658C332.704 198.533 332.734 198.441 332.793 198.383C332.853 198.328 332.923 198.323 333.005 198.37L334.292 199.113C334.373 199.16 334.443 199.245 334.503 199.371C334.561 199.496 334.591 199.621 334.591 199.747V208.066C334.591 208.704 334.515 209.221 334.363 209.617C334.211 210.014 334.003 210.298 333.737 210.469C333.471 210.639 333.152 210.698 332.782 210.644C332.412 210.59 332.005 210.436 331.562 210.179C330.984 209.846 330.513 209.462 330.146 209.029C329.78 208.594 329.494 208.162 329.286 207.729C329.079 207.297 328.935 206.886 328.854 206.497C328.772 206.108 328.728 205.785 328.72 205.532C328.713 205.402 328.74 205.309 328.803 205.256C328.866 205.201 328.939 205.196 329.02 205.244L330.462 206.076C330.617 206.166 330.733 206.347 330.806 206.616C330.858 206.794 330.937 206.971 331.044 207.146C331.152 207.321 331.331 207.481 331.583 207.625ZM330.606 200.828C330.59 200.989 330.583 201.125 330.583 201.234C330.583 201.342 330.59 201.486 330.606 201.666C330.628 202.077 330.718 202.458 330.878 202.812C331.037 203.166 331.279 203.437 331.604 203.625C331.907 203.801 332.139 203.804 332.297 203.642C332.456 203.477 332.555 203.24 332.591 202.932C332.628 202.601 332.628 202.242 332.591 201.856C332.562 201.508 332.466 201.161 332.303 200.817C332.14 200.473 331.907 200.214 331.604 200.038C331.286 199.855 331.045 199.844 330.884 200.005C330.721 200.168 330.628 200.442 330.606 200.828Z" fill="#FAFAFA"/>
<path d="M337.607 206.442C337.607 206.703 337.638 206.938 337.701 207.145C337.764 207.352 337.843 207.534 337.939 207.692C338.035 207.85 338.142 207.985 338.262 208.093C338.38 208.2 338.494 208.286 338.605 208.351C338.828 208.479 339.003 208.546 339.132 208.552C339.261 208.558 339.37 208.526 339.46 208.451C339.541 208.396 339.601 208.366 339.637 208.358C339.674 208.35 339.737 208.371 339.826 208.423L341.268 209.256C341.43 209.35 341.512 209.523 341.512 209.774C341.512 209.909 341.457 210.086 341.346 210.3C341.234 210.515 341.062 210.701 340.83 210.856C340.598 211.012 340.295 211.092 339.926 211.094C339.555 211.096 339.116 210.951 338.605 210.657C338.125 210.379 337.697 210.026 337.324 209.6C336.95 209.174 336.635 208.689 336.381 208.142C336.125 207.595 335.933 207.001 335.803 206.357C335.674 205.713 335.609 205.033 335.609 204.315C335.609 203.654 335.674 203.08 335.803 202.591C335.933 202.101 336.125 201.725 336.381 201.463C336.635 201.201 336.949 201.061 337.324 201.043C337.697 201.025 338.125 201.155 338.605 201.433C339.146 201.744 339.605 202.149 339.987 202.648C340.367 203.148 340.678 203.689 340.919 204.271C341.159 204.854 341.333 205.452 341.44 206.067C341.547 206.682 341.601 207.261 341.601 207.808V208.287C341.601 208.412 341.571 208.504 341.512 208.56C341.453 208.617 341.382 208.623 341.301 208.574L337.607 206.442ZM338.605 203.737C338.294 203.559 338.057 203.565 337.896 203.755C337.732 203.946 337.636 204.21 337.607 204.546L339.604 205.699C339.574 205.328 339.478 204.954 339.315 204.575C339.153 204.197 338.916 203.917 338.605 203.737Z" fill="#FAFAFA"/>
<path d="M350.879 217.107C350.879 217.232 350.85 217.322 350.79 217.379C350.732 217.437 350.661 217.442 350.581 217.395L349.182 216.587C349.1 216.54 349.03 216.455 348.971 216.328C348.912 216.204 348.882 216.079 348.882 215.954V211.632C348.882 211.141 348.805 210.705 348.65 210.319C348.495 209.933 348.25 209.644 347.918 209.452C347.584 209.259 347.343 209.268 347.191 209.476C347.039 209.684 346.963 210.033 346.963 210.523V214.845C346.963 214.97 346.933 215.062 346.874 215.118C346.815 215.175 346.745 215.181 346.663 215.133L345.265 214.326C345.183 214.279 345.113 214.192 345.054 214.067C344.994 213.943 344.965 213.817 344.965 213.691V205.731C344.965 205.606 344.994 205.516 345.054 205.458C345.113 205.401 345.183 205.397 345.265 205.444L346.607 206.219C346.689 206.266 346.759 206.351 346.818 206.477C346.877 206.602 346.907 206.727 346.907 206.853V207.245C346.966 207.167 347.039 207.089 347.129 207.015C347.218 206.942 347.325 206.892 347.45 206.868C347.576 206.843 347.722 206.848 347.888 206.881C348.055 206.915 348.249 206.995 348.471 207.124C348.826 207.329 349.152 207.593 349.447 207.917C349.743 208.242 349.996 208.625 350.208 209.064C350.419 209.505 350.582 210.005 350.701 210.563C350.819 211.12 350.878 211.737 350.878 212.409L350.879 217.107Z" fill="#FAFAFA"/>
<path d="M357.899 216.533C357.906 216.709 357.91 216.93 357.91 217.198C357.91 217.465 357.906 217.682 357.899 217.848C357.884 218.386 357.803 218.852 357.655 219.244C357.507 219.638 357.304 219.939 357.045 220.148C356.786 220.356 356.473 220.457 356.107 220.451C355.741 220.445 355.333 220.313 354.881 220.051C354.43 219.791 354.022 219.453 353.654 219.035C353.288 218.62 352.976 218.157 352.717 217.649C352.457 217.14 352.255 216.605 352.107 216.041C351.959 215.478 351.877 214.918 351.863 214.363C351.856 214.187 351.852 213.966 351.852 213.698C351.852 213.43 351.856 213.214 351.863 213.048C351.87 212.505 351.948 212.037 352.096 211.644C352.243 211.251 352.449 210.952 352.711 210.745C352.973 210.538 353.288 210.433 353.654 210.434C354.021 210.435 354.429 210.567 354.881 210.827C355.332 211.088 355.741 211.428 356.107 211.85C356.473 212.272 356.787 212.738 357.05 213.249C357.314 213.759 357.517 214.295 357.662 214.857C357.804 215.419 357.885 215.978 357.899 216.533ZM353.86 215.43C353.883 215.877 353.984 216.274 354.166 216.624C354.347 216.973 354.585 217.233 354.881 217.404C355.177 217.575 355.416 217.589 355.596 217.45C355.778 217.309 355.879 217.03 355.902 216.61C355.917 216.448 355.924 216.259 355.924 216.042C355.924 215.825 355.917 215.628 355.902 215.447C355.879 215.003 355.778 214.605 355.596 214.255C355.415 213.906 355.177 213.646 354.881 213.475C354.585 213.304 354.346 213.29 354.166 213.429C353.984 213.57 353.883 213.849 353.86 214.269C353.846 214.43 353.838 214.62 353.838 214.837C353.838 215.054 353.846 215.252 353.86 215.43Z" fill="#FAFAFA"/>
<path d="M361.549 220.264C361.549 220.525 361.586 220.749 361.66 220.933C361.735 221.12 361.856 221.26 362.026 221.359L362.914 221.871C362.995 221.919 363.066 222.005 363.123 222.129C363.183 222.255 363.212 222.381 363.212 222.506V224.231C363.212 224.356 363.183 224.448 363.123 224.503C363.065 224.561 362.994 224.566 362.914 224.52L361.859 223.911C361.511 223.71 361.194 223.451 360.91 223.132C360.626 222.815 360.383 222.452 360.183 222.047C359.983 221.641 359.829 221.198 359.717 220.718C359.607 220.239 359.551 219.737 359.551 219.213V216.343L358.73 215.869C358.649 215.823 358.578 215.736 358.519 215.611C358.46 215.486 358.43 215.361 358.43 215.235V213.51C358.43 213.385 358.46 213.293 358.519 213.237C358.578 213.18 358.649 213.174 358.73 213.223L359.551 213.696V210.911C359.551 210.786 359.581 210.694 359.64 210.638C359.699 210.581 359.769 210.577 359.851 210.624L361.25 211.432C361.33 211.478 361.401 211.564 361.459 211.69C361.518 211.815 361.548 211.94 361.548 212.066V214.851L362.801 215.574C362.883 215.621 362.953 215.708 363.013 215.832C363.072 215.958 363.101 216.084 363.101 216.209V217.934C363.101 218.059 363.072 218.151 363.013 218.208C362.953 218.263 362.883 218.268 362.801 218.221L361.548 217.497V220.264H361.549Z" fill="#FAFAFA"/>
<path d="M369.016 219.16L370.381 219.947C370.463 219.995 370.533 220.081 370.592 220.205C370.651 220.331 370.681 220.457 370.681 220.582V222.307C370.681 222.432 370.651 222.524 370.592 222.582C370.533 222.637 370.463 222.642 370.381 222.596L369.016 221.807V227.581C369.016 227.706 368.987 227.798 368.928 227.854C368.869 227.911 368.798 227.915 368.717 227.868L367.318 227.061C367.237 227.014 367.166 226.927 367.107 226.802C367.048 226.678 367.019 226.552 367.019 226.426V220.652L366.253 220.21C366.171 220.163 366.101 220.078 366.041 219.952C365.982 219.827 365.953 219.702 365.953 219.576V217.85C365.953 217.725 365.982 217.633 366.041 217.577C366.101 217.52 366.171 217.516 366.253 217.562L367.019 218.004V217.543C367.019 217.019 367.079 216.588 367.202 216.248C367.324 215.91 367.492 215.662 367.706 215.506C367.92 215.351 368.176 215.286 368.472 215.307C368.768 215.33 369.09 215.442 369.437 215.642L370.49 216.251C370.572 216.298 370.642 216.383 370.701 216.51C370.76 216.635 370.79 216.759 370.79 216.884V218.61C370.79 218.735 370.76 218.825 370.701 218.883C370.642 218.94 370.572 218.944 370.49 218.897L369.492 218.32C369.315 218.218 369.19 218.214 369.12 218.31C369.05 218.406 369.014 218.563 369.014 218.78V219.16H369.016Z" fill="#FAFAFA"/>
<path d="M377.215 227.687C377.222 227.863 377.226 228.084 377.226 228.352C377.226 228.62 377.222 228.836 377.215 229.002C377.201 229.54 377.119 230.006 376.971 230.398C376.823 230.792 376.619 231.091 376.362 231.301C376.102 231.511 375.789 231.612 375.424 231.606C375.058 231.6 374.649 231.466 374.197 231.206C373.747 230.945 373.337 230.608 372.971 230.19C372.605 229.773 372.292 229.312 372.033 228.803C371.774 228.295 371.571 227.759 371.423 227.196C371.275 226.633 371.194 226.072 371.18 225.518C371.173 225.342 371.168 225.121 371.168 224.854C371.168 224.587 371.173 224.37 371.18 224.204C371.187 223.661 371.264 223.193 371.412 222.8C371.56 222.406 371.765 222.108 372.027 221.899C372.291 221.692 372.605 221.588 372.971 221.59C373.337 221.591 373.746 221.721 374.197 221.983C374.648 222.243 375.058 222.584 375.424 223.006C375.789 223.427 376.104 223.895 376.367 224.405C376.629 224.915 376.833 225.451 376.977 226.013C377.12 226.573 377.201 227.132 377.215 227.687ZM373.176 226.584C373.199 227.031 373.301 227.428 373.482 227.778C373.663 228.127 373.902 228.387 374.197 228.558C374.493 228.729 374.732 228.743 374.913 228.604C375.095 228.463 375.196 228.184 375.218 227.763C375.232 227.601 375.241 227.413 375.241 227.196C375.241 226.979 375.233 226.782 375.218 226.601C375.196 226.157 375.095 225.76 374.913 225.409C374.731 225.06 374.493 224.8 374.197 224.629C373.902 224.458 373.662 224.444 373.482 224.583C373.301 224.724 373.199 225.003 373.176 225.422C373.162 225.584 373.154 225.775 373.154 225.991C373.154 226.207 373.162 226.405 373.176 226.584Z" fill="#FAFAFA"/>
<path d="M378.207 224.925C378.207 224.8 378.236 224.708 378.295 224.651C378.354 224.596 378.424 224.59 378.506 224.638L379.904 225.445C379.986 225.492 380.057 225.578 380.116 225.703C380.175 225.828 380.204 225.953 380.204 226.079V230.401C380.204 230.89 380.275 231.324 380.415 231.701C380.556 232.079 380.789 232.362 381.114 232.55C381.439 232.738 381.67 232.723 381.807 232.505C381.944 232.288 382.012 231.934 382.012 231.446V227.124C382.012 226.999 382.042 226.907 382.101 226.849C382.161 226.794 382.231 226.789 382.313 226.835L383.711 227.643C383.792 227.69 383.862 227.777 383.922 227.901C383.981 228.026 384.01 228.153 384.01 228.278V236.238C384.01 236.363 383.981 236.454 383.922 236.51C383.862 236.568 383.792 236.573 383.711 236.526L382.424 235.783C382.342 235.735 382.272 235.649 382.212 235.523C382.154 235.399 382.124 235.274 382.124 235.149V234.756C382.064 234.846 381.993 234.927 381.907 234.998C381.822 235.068 381.717 235.116 381.59 235.14C381.465 235.164 381.318 235.159 381.152 235.126C380.986 235.093 380.788 235.01 380.559 234.878C379.843 234.464 379.271 233.821 378.846 232.948C378.42 232.076 378.208 230.969 378.208 229.625V224.925H378.207Z" fill="#FAFAFA"/>
<path d="M391.207 240.393C391.207 240.518 391.178 240.608 391.118 240.665C391.06 240.723 390.989 240.728 390.909 240.681L389.51 239.874C389.429 239.826 389.358 239.74 389.299 239.614C389.24 239.49 389.21 239.365 389.21 239.24V234.918C389.21 234.428 389.133 233.991 388.978 233.605C388.823 233.22 388.578 232.931 388.246 232.738C387.913 232.545 387.671 232.554 387.519 232.762C387.367 232.971 387.291 233.319 387.291 233.809V238.131C387.291 238.256 387.262 238.348 387.202 238.404C387.143 238.461 387.073 238.467 386.991 238.42L385.593 237.612C385.512 237.565 385.441 237.478 385.382 237.353C385.323 237.229 385.293 237.103 385.293 236.977V229.017C385.293 228.892 385.323 228.802 385.382 228.744C385.441 228.687 385.512 228.683 385.593 228.73L386.935 229.505C387.017 229.552 387.087 229.639 387.147 229.763C387.205 229.889 387.235 230.015 387.235 230.14V230.533C387.294 230.453 387.369 230.376 387.458 230.302C387.546 230.229 387.653 230.179 387.78 230.155C387.905 230.131 388.051 230.136 388.218 230.169C388.384 230.203 388.578 230.282 388.8 230.411C389.156 230.616 389.481 230.88 389.778 231.204C390.073 231.529 390.327 231.912 390.538 232.353C390.749 232.794 390.914 233.293 391.032 233.851C391.15 234.408 391.209 235.025 391.209 235.697V240.393H391.207Z" fill="#FAFAFA"/>
<path d="M394.702 233.819C394.917 233.942 395.105 234.085 395.268 234.248C395.43 234.41 395.571 234.577 395.689 234.748C395.808 234.919 395.908 235.088 395.989 235.255C396.071 235.421 396.137 235.57 396.189 235.703V232.065C396.189 231.94 396.219 231.848 396.278 231.79C396.337 231.735 396.408 231.729 396.489 231.776L397.887 232.584C397.969 232.631 398.039 232.716 398.098 232.842C398.157 232.967 398.187 233.092 398.187 233.218V244.424C398.187 244.549 398.157 244.641 398.098 244.697C398.039 244.754 397.969 244.76 397.887 244.713L396.545 243.938C396.464 243.891 396.393 243.804 396.334 243.679C396.275 243.554 396.245 243.429 396.245 243.303V242.911C396.179 242.998 396.107 243.078 396.03 243.154C395.952 243.227 395.855 243.28 395.741 243.311C395.627 243.342 395.486 243.341 395.318 243.307C395.152 243.273 394.947 243.185 394.703 243.046C394.371 242.853 394.057 242.595 393.76 242.269C393.464 241.945 393.205 241.556 392.982 241.104C392.76 240.653 392.581 240.141 392.445 239.573C392.308 239.004 392.232 238.38 392.218 237.7C392.209 237.524 392.207 237.291 392.207 237.001C392.207 236.711 392.209 236.482 392.218 236.316C392.232 235.653 392.308 235.116 392.445 234.705C392.581 234.293 392.76 233.991 392.982 233.795C393.205 233.598 393.464 233.505 393.76 233.516C394.056 233.524 394.37 233.627 394.702 233.819ZM394.204 237.664C394.181 237.97 394.181 238.288 394.204 238.62C394.226 239.032 394.311 239.429 394.458 239.809C394.607 240.192 394.854 240.482 395.202 240.683C395.364 240.777 395.505 240.818 395.623 240.806C395.741 240.795 395.84 240.747 395.917 240.66C395.995 240.575 396.057 240.465 396.1 240.33C396.144 240.196 396.175 240.047 396.189 239.886C396.203 239.725 396.212 239.528 396.212 239.301C396.212 239.073 396.204 238.87 396.189 238.689C396.174 238.511 396.144 238.328 396.1 238.144C396.057 237.959 395.995 237.779 395.917 237.602C395.84 237.426 395.741 237.265 395.623 237.116C395.505 236.968 395.364 236.848 395.202 236.754C394.854 236.553 394.607 236.559 394.458 236.768C394.311 236.98 394.225 237.279 394.204 237.664Z" fill="#FAFAFA"/>
</svg>
