<svg width="500" height="500" viewBox="0 0 500 500" fill="none" xmlns="http://www.w3.org/2000/svg">
    <g clip-path="url(#__lottie_element_36)">
        <g clip-path="url(#__lottie_element_38)"
           transform="matrix(3.6926825046539307,0,0,3.6926825046539307,-112.53652954101562,-97.63343811035156)"
           opacity="1" style="display: block;">
            <g transform="matrix(1,0,0,1,59.50800323486328,49.03314971923828)" opacity="1" style="display: block;">
                <g opacity="1" transform="matrix(1,0,0,1,0,0)">
                    <path stroke-linecap="round" stroke-linejoin="round" fill-opacity="0" stroke="rgb(170,170,170)"
                          stroke-opacity="1" stroke-width="2" d=" M5,5 C5,5 72,5 72,5"></path>
                </g>
            </g>
            <g transform="matrix(1,0,0,1,68.50800323486328,42.03314971923828)" opacity="1" style="display: block;">
                <g opacity="1" transform="matrix(1,0,0,1,0,0)">
                    <path stroke-linecap="round" stroke-linejoin="round" fill-opacity="0" stroke="rgb(170,170,170)"
                          stroke-opacity="1" stroke-width="2" d=" M5,5 C5,5 54,5 54,5"></path>
                </g>
            </g>
            <g transform="matrix(1,0,0,1,65.84500122070312,87.84114837646484)" opacity="1" style="display: block;">
                <g opacity="1" transform="matrix(1,0,0,1,22.108999252319336,17.325000762939453)">
                    <path stroke-linecap="round" stroke-linejoin="round" fill-opacity="0" stroke="rgb(170,170,170)"
                          stroke-opacity="1" stroke-width="4"
                          d=" M-0.6200000047683716,-0.375 C-0.6200000047683716,-0.375 12.109000205993652,7.324999809265137 12.109000205993652,7.324999809265137"></path>
                </g>
            </g>
            <g transform="matrix(1,0,0,1,44.8849983215332,70.6241455078125)" opacity="1" style="display: block;">
                <g opacity="1" transform="matrix(1,0,0,1,52.7140007019043,28.218000411987305)">
                    <path stroke-linecap="round" stroke-linejoin="round" fill-opacity="0" stroke="rgb(170,170,170)"
                          stroke-opacity="1" stroke-width="4"
                          d=" M-0.6460000276565552,4.514999866485596 C6.451000213623047,-3.325000047683716 19.93199920654297,-18.216999053955078 19.93199920654297,-18.216999053955078 C19.93199920654297,-18.216999053955078 42.7140007019043,0.6140000224113464 42.7140007019043,0.6140000224113464 M-42.7140007019043,18.216999053955078 C-42.7140007019043,18.216999053955078 -21.753999710083008,-0.9990000128746033 -21.753999710083008,-0.9990000128746033 C-21.753999710083008,-0.9990000128746033 -4.9019999504089355,9.217000007629395 -4.9019999504089355,9.217000007629395 C-4.9019999504089355,9.217000007629395 -3.180999994277954,7.315999984741211 -0.6460000276565552,4.514999866485596"></path>
                </g>
            </g>
            <g transform="matrix(1,0,0,1,44,52.017147064208984)" opacity="1" style="display: block;">
                <g opacity="1" transform="matrix(1,0,0,1,53.5,44.5)">
                    <path stroke-linecap="round" stroke-linejoin="round" fill-opacity="0" stroke="rgb(170,170,170)"
                          stroke-opacity="1" stroke-width="4"
                          d=" M-39.70000076293945,-32.34700012207031 C-37.99599838256836,-33.69499969482422 -35.84199905395508,-34.5 -33.5,-34.5 C-33.5,-34.5 33.5,-34.5 33.5,-34.5 C39.02299880981445,-34.5 43.5,-30.023000717163086 43.5,-24.5 C43.5,-24.5 43.5,24.5 43.5,24.5 C43.5,24.5 43.5,24.5 43.5,24.5 C43.5,30.023000717163086 39.02299880981445,34.5 33.5,34.5 C33.5,34.5 -33.5,34.5 -33.5,34.5 C-39.02299880981445,34.5 -43.5,30.023000717163086 -43.5,24.5 C-43.5,24.5 -43.5,-24.5 -43.5,-24.5 C-43.5,-27.680999755859375 -42.01499938964844,-30.514999389648438 -39.70000076293945,-32.34700012207031"></path>
                </g>
            </g>
            <g mask="url(#__lottie_element_51_1)" style="display: block;">
                <g transform="matrix(0.9501617550849915,0.3117358982563019,-0.3117358982563019,0.9501617550849915,73.75228881835938,66.45625305175781)"
                   opacity="1">
                    <g opacity="1" transform="matrix(1,0,0,1,10.38599967956543,10.38599967956543)">
                        <path stroke-linecap="round" stroke-linejoin="round" fill-opacity="0" stroke="rgb(170,170,170)"
                              stroke-opacity="1" stroke-width="2"
                              d=" M5.38700008392334,0 C5.38700008392334,2.9749999046325684 2.9749999046325684,5.386000156402588 0.0010000000474974513,5.386000156402588 C-2.9739999771118164,5.386000156402588 -5.38700008392334,2.9749999046325684 -5.38700008392334,0 C-5.38700008392334,-2.9749999046325684 -2.9739999771118164,-5.386000156402588 0.0010000000474974513,-5.386000156402588 C2.9749999046325684,-5.386000156402588 5.38700008392334,-2.9749999046325684 5.38700008392334,0z"></path>
                    </g>
                </g>
            </g>
        </g>
    </g>
</svg>