<?xml version="1.0" encoding="UTF-8" standalone="no"?>

<svg
   width="232.29044mm"
   height="30.671352mm"
   viewBox="0 0 232.29043 30.671353"
   version="1.1"
   id="svg1"
   xml:space="preserve"
   xmlns="http://www.w3.org/2000/svg"
   xmlns:svg="http://www.w3.org/2000/svg"><defs
     id="defs1" /><g
     id="layer1"
     transform="translate(0.38889592,-366.60872)"><path
       style="fill:#8f9ba4"
       d="m 0.50384953,396.61462 -0.74235801,-0.63832 -0.0752,-10.06299 -0.0752,-10.063 0.76928401,-0.86097 c 1.07891897,-1.20752 2.44231597,-1.21146 3.51568997,-0.0101 l 0.760226,0.85084 v 9.93805 9.93806 l -0.773398,0.77339 c -0.995173,0.99518 -2.31729,1.04803 -3.37903597,0.13508 z m 7.57166497,-0.13508 -0.773398,-0.77339 v -13.79072 -13.79071 l 0.638672,-0.63867 c 0.826125,-0.82613 1.8235583,-1.06503 2.7845935,-0.66695 0.593431,0.2458 1.107681,0.24707 2.270865,0.006 1.784208,-0.3704 2.949961,-0.20344 4.807995,0.6886 l 1.373999,0.65965 1.404126,-0.72312 c 1.136271,-0.58517 1.757433,-0.72311 3.256209,-0.72311 3.016663,0 5.264967,1.44519 6.534252,4.20018 0.600727,1.30388 0.610722,1.48282 0.694607,12.43542 0.05828,7.60889 -0.0075,11.42483 -0.208596,12.10314 -0.511842,1.7264 -2.532276,2.32228 -3.896655,1.14922 l -0.742358,-0.63826 -0.132292,-11.52554 c -0.131786,-11.48149 -0.134544,-11.52779 -0.721725,-12.11465 -0.387638,-0.38744 -0.910492,-0.58912 -1.527233,-0.58912 -0.616742,0 -1.139596,0.20168 -1.527234,0.58912 -0.587181,0.58686 -0.589939,0.63316 -0.721725,12.11465 l -0.132291,11.52554 -0.742359,0.63826 c -1.275428,1.09658 -3.05798,0.69647 -3.856883,-0.8657 -0.203334,-0.3976 -0.298176,-4.02996 -0.303965,-11.64167 -0.0089,-11.65477 0.0012,-11.5549 -1.230962,-12.21115 -0.893411,-0.47584 -1.381461,-0.3735 -2.220559,0.46559 l -0.773397,0.7734 v 11.0137 c 0,9.30602 -0.06196,11.13352 -0.399614,11.78647 -0.797877,1.54292 -2.6007872,1.79751 -3.8540725,0.54422 z m 30.4843355,0.48564 c -3.017087,-0.92193 -5.046208,-3.57415 -5.058172,-6.61143 -0.0074,-1.88043 0.754955,-2.74607 2.418436,-2.74607 1.317216,0 2.197727,0.88671 2.467785,2.48518 0.345467,2.04479 2.20611,2.74848 3.594988,1.3596 0.705697,-0.7057 0.773397,-0.93357 0.773397,-2.60317 v -1.82977 l -1.918229,0.009 c -3.109803,0.0141 -5.389069,-1.30562 -6.660157,-3.85637 -0.659513,-1.32346 -0.682031,-1.5312 -0.682031,-6.29184 0,-4.76064 0.02252,-4.96837 0.682031,-6.29184 1.444804,-2.89934 4.74357,-4.47349 7.894724,-3.7673 0.909764,0.20388 1.527975,0.19638 2.2756,-0.0276 0.802523,-0.24044 1.20539,-0.23344 1.846421,0.0321 1.62165,0.67171 1.622622,0.68022 1.535442,13.43985 -0.08796,12.87338 -0.03425,12.47207 -1.953481,14.59643 -0.549916,0.60869 -1.480718,1.35204 -2.068448,1.65187 -1.232019,0.62853 -3.825054,0.85603 -5.148306,0.45168 z m 3.601122,-15.74425 c 0.557377,-0.62379 0.595312,-0.90265 0.595312,-4.37601 v -3.70977 l -0.773397,-0.7734 c -0.425369,-0.42536 -0.953399,-0.77339 -1.173401,-0.77339 -0.943655,0 -1.80258,0.57275 -2.167041,1.44502 -0.526751,1.2607 -0.52605,6.43427 10e-4,7.69578 0.6521,1.56069 2.350241,1.79811 3.517485,0.49177 z m 19.777604,15.77974 c -7.243902,-1.57815 -12.284264,-7.73123 -12.299214,-15.01439 -0.01,-4.87263 2.221884,-9.37806 6.080122,-12.27371 2.240361,-1.68141 4.466879,-2.55329 7.482299,-2.92998 2.069943,-0.25858 2.762685,-0.23906 4.557626,0.12837 2.691352,0.55094 5.513375,1.93976 7.245046,3.56553 1.216524,1.14214 1.353913,1.38508 1.353913,2.39415 0,1.51299 -0.877183,2.42188 -2.337389,2.42188 -0.826875,0 -1.350144,-0.24197 -2.567573,-1.18733 -5.513065,-4.28098 -12.918141,-2.62395 -15.815757,3.53909 -3.504,7.45278 3.082096,15.96631 11.075226,14.31641 1.90078,-0.39235 3.263349,-1.05286 4.983701,-2.41589 1.577631,-1.24994 2.65192,-1.34435 3.847742,-0.33813 1.745052,1.46836 0.777205,3.675 -2.470464,5.63252 -2.468214,1.48771 -4.702778,2.16408 -7.548364,2.28479 -1.390719,0.059 -3.004831,0.004 -3.586914,-0.12331 z m 33.714022,-0.52113 -0.773397,-0.77339 v -13.76394 -13.76393 l 0.626408,-0.72824 c 0.503737,-0.58563 0.827573,-0.71888 1.653646,-0.68043 1.729622,0.0805 2.932845,0.084 4.831105,0.0142 1.54922,-0.057 2.02895,0.0417 3.22958,0.66466 l 1.41009,0.73158 1.44594,-0.73158 c 3.71779,-1.88102 8.34144,-0.15788 9.95803,3.71116 0.32798,0.78499 0.39312,2.91109 0.39312,12.83211 v 11.89122 l -0.81405,0.68498 c -0.87171,0.7335 -1.69545,0.85631 -2.69349,0.40157 -1.38125,-0.62934 -1.37755,-0.598 -1.51954,-12.87054 -0.1453,-12.55832 -0.0742,-12.06245 -1.77888,-12.40339 -0.71005,-0.14201 -0.97482,-0.0401 -1.65011,0.6352 l -0.80435,0.80435 v 11.2855 11.2855 l -0.77339,0.77339 c -1.06742,1.06742 -2.41288,1.06742 -3.48029,0 l -0.7734,-0.77339 v -11.2855 -11.2855 l -0.7734,-0.7734 c -0.42537,-0.42536 -0.96706,-0.77339 -1.20376,-0.77339 -0.65396,0 -1.90673,0.72015 -2.09182,1.20248 -0.0904,0.23556 -0.164352,5.28235 -0.164352,11.21509 0,7.21221 -0.0972,11.06558 -0.29327,11.62807 -0.57944,1.66218 -2.692622,2.11334 -3.96042,0.84554 z m 62.724892,0.54206 c -2.12906,-0.69857 -3.72741,-2.11283 -4.66616,-4.12874 -0.61288,-1.31613 -0.61862,-1.41813 -0.61862,-10.98575 0,-9.57001 0.006,-9.66925 0.61878,-10.98021 0.74235,-1.58711 2.60249,-3.36814 4.02852,-3.8572 0.56984,-0.19543 1.75044,-0.35047 2.62357,-0.34454 2.84885,0.0193 5.14506,1.52778 6.38766,4.19619 0.56851,1.22084 0.61884,1.67845 0.62121,5.6483 l 0.003,4.31983 -0.77339,0.7734 -0.7734,0.77339 h -3.85683 -3.85681 l 0.008,4.16719 c 0.006,2.8579 0.10968,4.29909 0.33073,4.58699 1.32125,1.72089 3.89419,0.9501 3.89419,-1.16659 0,-0.92085 1.51634,-2.5605 2.36793,-2.5605 0.78804,0 2.05958,0.69698 2.38673,1.30826 0.35561,0.66447 0.31451,2.56943 -0.0784,3.63523 -1.00097,2.71493 -3.49919,4.57676 -6.35995,4.7398 -0.89296,0.0509 -1.922,-0.005 -2.28674,-0.12505 z m 3.97046,-21.70744 c 0,-2.50872 -0.10569,-2.8363 -1.07725,-3.33871 -1.07557,-0.5562 -1.51073,-0.48565 -2.38268,0.3863 -0.72714,0.72714 -0.7734,0.90123 -0.7734,2.91042 v 2.13702 h 2.11667 2.11666 z m -79.904166,21.12362 c -1.397852,-0.63276 -2.437128,-1.55534 -3.403429,-3.0213 l -0.697613,-1.05833 -0.07828,-10.05037 c -0.08656,-11.11279 -0.05359,-11.38496 1.608324,-13.27777 2.032734,-2.31516 5.800709,-3.0299 8.524124,-1.61694 1.660261,0.86138 2.582325,1.8264 3.357409,3.51383 0.586265,1.27635 0.610846,1.61954 0.698286,9.74938 0.05901,5.48655 -0.01375,9.02589 -0.208554,10.14452 -0.646913,3.71485 -3.431483,6.15594 -7.022141,6.15594 -1.031051,0 -2.004836,-0.18892 -2.778126,-0.53896 z m 4.18024,-5.013 c 0.31672,-0.29507 0.642001,-0.80108 0.722846,-1.12448 0.08084,-0.32339 0.112052,-4.37866 0.06935,-9.01172 l -0.07764,-8.42373 -0.742358,-0.63825 c -0.941972,-0.80986 -1.806636,-0.80987 -2.748617,-1e-5 l -0.742358,0.63823 -0.08024,8.15917 c -0.04413,4.48754 -0.0089,8.54658 0.07833,9.0201 0.322911,1.75318 2.292009,2.52539 3.520693,1.38069 z m 35.323576,4.92517 -0.74236,-0.6384 -0.0732,-13.38397 c -0.0806,-14.73714 -0.098,-14.56345 1.52477,-15.23562 0.56221,-0.23288 1.07577,-0.26282 1.65558,-0.0965 0.57407,0.16464 1.3137,0.12548 2.3329,-0.12351 3.17061,-0.77458 6.31806,0.68337 7.85529,3.63869 l 0.85989,1.65315 v 5.75058 c 0,6.79227 -0.18825,7.6458 -2.1102,9.56775 -1.56403,1.56403 -3.39083,2.22442 -5.59933,2.02416 l -1.55088,-0.14063 v 3.03797 c 0,3.00498 -0.008,3.04637 -0.7734,3.81137 -0.99522,0.99522 -2.31732,1.04803 -3.37904,0.13499 z m 7.73634,-12.44644 c 0.64496,-0.64497 0.64943,-0.6848 0.64943,-5.79152 0,-5.72787 -0.10243,-6.09838 -1.77534,-6.4215 -0.7132,-0.13775 -0.98071,-0.0326 -1.66941,0.65608 l -0.82012,0.82012 0.0819,5.18784 c 0.0803,5.08653 0.0941,5.19772 0.70654,5.69313 0.86985,0.70365 2.03879,0.64405 2.82698,-0.14415 z m 8.56658,12.31145 -0.7734,-0.7734 v -13.47842 c 0,-13.17306 0.0122,-13.49399 0.54063,-14.16572 0.60421,-0.76813 2.05109,-1.15974 2.80495,-0.75917 0.3393,0.18029 0.98928,0.13859 2.10498,-0.13504 4.43996,-1.08893 8.82785,2.26078 8.83546,6.74498 0.003,1.73351 -1.71423,3.0432 -3.23295,2.46578 -0.89889,-0.34175 -1.79265,-1.53122 -1.79265,-2.38576 0,-1.63003 -1.63601,-2.53882 -3.15569,-1.75296 -0.44719,0.23124 -0.83852,0.44715 -0.86964,0.4798 -0.0311,0.0326 -0.12042,5.27876 -0.19844,11.65805 l -0.14186,11.5987 -0.74236,0.63828 c -1.06176,0.9129 -2.38388,0.86003 -3.37903,-0.13512 z m 35.20993,0.22282 c -2.18218,-0.9878 -3.76406,-2.95072 -4.16643,-5.17007 -0.44315,-2.44419 0.40965,-3.80435 2.38525,-3.80435 1.21638,0 2.31035,0.94216 2.31035,1.98974 0,2.18132 2.31357,3.32693 3.7122,1.83817 0.49557,-0.52752 0.65281,-1.03718 0.73937,-2.3965 0.13286,-2.08647 0.0274,-2.22894 -3.65782,-4.94032 -2.96026,-2.17801 -4.31676,-3.42389 -5.10989,-4.69318 -0.51093,-0.81767 -0.57684,-1.28211 -0.56318,-3.96875 0.0126,-2.46966 0.11679,-3.26694 0.55346,-4.23333 1.29118,-2.85749 3.5288,-4.33214 6.57482,-4.333 2.85612,-8e-4 5.08101,1.35675 6.32943,3.86199 0.74985,1.50477 0.92829,3.9648 0.34288,4.72727 -1.44337,1.87995 -4.17054,0.99772 -4.54042,-1.46881 -0.30996,-2.06697 -2.04594,-2.87579 -3.49575,-1.62872 -0.64684,0.55638 -0.74435,0.84987 -0.83902,2.52513 -0.12869,2.27766 -0.14339,2.25663 3.3935,4.85554 2.9607,2.17552 4.0273,3.13063 5.05994,4.53103 0.73981,1.00328 0.76083,1.12061 0.75831,4.23333 -0.002,2.81513 -0.0782,3.36109 -0.62906,4.52437 -1.64725,3.47849 -5.77858,5.08018 -9.15794,3.55046 z m 16.22318,0.19972 c -2.55194,-0.94087 -4.48939,-3.41322 -4.76463,-6.08007 -0.12781,-1.2383 -0.0646,-1.48602 0.57241,-2.24306 0.58593,-0.69633 0.90787,-0.85101 1.77125,-0.85101 1.36067,0 2.60196,1.13203 2.60196,2.37292 0,1.86706 2.26839,2.79107 3.59505,1.46442 0.60746,-0.60746 0.65436,-0.82508 0.58328,-2.70634 l -0.0773,-2.04576 -3.63447,-2.78377 c -1.99896,-1.53107 -4.02302,-3.31578 -4.49792,-3.96602 -0.8287,-1.13468 -0.86704,-1.29679 -0.95284,-4.02891 -0.11212,-3.57042 0.3267,-5.07367 2.00477,-6.86767 1.44337,-1.54308 3.05384,-2.21495 5.22838,-2.18123 1.96639,0.0305 3.19288,0.53837 4.73675,1.96145 1.34419,1.23903 2.27471,3.30601 2.27471,5.05285 0,3.06537 -4.25053,3.5747 -4.90554,0.58782 -0.49301,-2.24812 -1.51773,-3.0974 -2.99764,-2.4844 -1.02061,0.42275 -1.35724,1.27594 -1.35724,3.43994 v 1.81332 l 3.75953,2.87058 c 2.17609,1.66156 4.09838,3.3541 4.56406,4.01859 0.79351,1.13227 0.80453,1.19388 0.80453,4.49791 0,3.22594 -0.0294,3.40319 -0.79375,4.78907 -1.28739,2.33417 -3.56126,3.67997 -6.2177,3.67997 -0.80037,0 -1.83431,-0.13977 -2.29766,-0.3106 z m 15.80558,-0.10628 c -1.59683,-0.56378 -3.51177,-2.52217 -4.07098,-4.16337 -0.37938,-1.11342 -0.44111,-2.61777 -0.44111,-10.74934 v -9.45475 l 0.8599,-1.65315 c 2.92703,-5.6272 11.27562,-4.86646 13.03566,1.18784 0.35975,1.23751 0.41074,2.8501 0.3413,10.79271 -0.0745,8.51753 -0.12507,9.41917 -0.57591,10.26386 -0.95768,1.79433 -1.76375,2.60906 -3.38077,3.41709 -1.87964,0.93927 -3.7883,1.0581 -5.76809,0.35911 z m 4.09889,-5.21938 0.64944,-0.64943 v -8.59854 c 0,-5.82705 -0.0964,-8.80998 -0.29891,-9.25456 -0.59943,-1.3156 -2.71751,-1.51769 -3.54372,-0.3381 -0.32566,0.46493 -0.39071,2.03194 -0.39071,9.41157 0,8.72622 0.008,8.86258 0.57529,9.46613 0.78821,0.83901 2.1493,0.82224 3.00861,-0.0371 z m 8.83117,4.90312 -0.7734,-0.7734 v -13.47842 c 0,-13.17306 0.0122,-13.49399 0.54063,-14.16572 0.60682,-0.77145 2.05321,-1.15961 2.8106,-0.75427 0.34822,0.18636 0.92952,0.15069 1.94609,-0.11942 4.25412,-1.13037 8.4637,1.75661 8.9133,6.11283 0.10712,1.03793 0.0305,1.5517 -0.30886,2.06954 -0.56915,0.86864 -1.93961,1.35351 -2.84869,1.00787 -0.89889,-0.34175 -1.79265,-1.53122 -1.79265,-2.38576 0,-1.63003 -1.63601,-2.53882 -3.15569,-1.75296 -0.44719,0.23124 -0.83852,0.44715 -0.86964,0.4798 -0.0311,0.0326 -0.12042,5.27876 -0.19844,11.65805 l -0.14186,11.5987 -0.74236,0.63828 c -1.06176,0.9129 -2.38388,0.86003 -3.37903,-0.13512 z M 0.36947353,371.04642 c -0.71494601,-0.71495 -0.78959801,-0.93271 -0.65746701,-1.91782 0.193084,-1.43954 1.14585901,-2.30274 2.54170098,-2.30274 2.243403,0 3.251302,2.63156 1.629178,4.25368 -1.081041,1.08104 -2.411793,1.0685 -3.51341197,-0.0331 z"
       id="path3" /></g></svg>
